<svg width="19" height="22" viewBox="0 0 19 22" fill="none" xmlns="http://www.w3.org/2000/svg">
<g id="bars-solid 1">
<path id="Vector" d="M19 4.125C19 3.36445 18.3935 2.75 17.6429 2.75H1.35714C0.606474 2.75 0 3.36445 0 4.125C0 4.88555 0.606474 5.5 1.35714 5.5H17.6429C18.3935 5.5 19 4.88555 19 4.125ZM19 11C19 10.2395 18.3935 9.625 17.6429 9.625H1.35714C0.606474 9.625 0 10.2395 0 11C0 11.7605 0.606474 12.375 1.35714 12.375H17.6429C18.3935 12.375 19 11.7605 19 11ZM0 17.875C0 18.6355 0.606474 19.25 1.35714 19.25H17.6429C18.3935 19.25 19 18.6355 19 17.875C19 17.1145 18.3935 16.5 17.6429 16.5H1.35714C0.606474 16.5 0 17.1145 0 17.875Z" fill="#727373"/>
</g>
</svg>
