<?xml version="1.0" encoding="UTF-8"?><svg id="Layer_2" xmlns="http://www.w3.org/2000/svg" xmlns:xlink="http://www.w3.org/1999/xlink" viewBox="0 0 329.89 52.21"><defs><style>.cls-1{mask:url(#mask);}.cls-2{fill:url(#linear-gradient);}.cls-2,.cls-3,.cls-4,.cls-5,.cls-6,.cls-7{stroke-width:0px;}.cls-3{fill:#365f35;}.cls-3,.cls-4{fill-rule:evenodd;}.cls-4,.cls-6{fill:#58a053;}.cls-8{mask:url(#mask-2);}.cls-9{mask:url(#mask-1);}.cls-7{fill:#221f20;}</style><linearGradient id="linear-gradient" x1="13684.67" y1="2852.47" x2="13678.9" y2="2900.05" gradientTransform="translate(-177.83 -966.11) rotate(90) scale(.07 -.07)" gradientUnits="userSpaceOnUse"><stop offset="0" stop-color="#fff"/><stop offset="1" stop-color="#fff" stop-opacity="0"/></linearGradient><mask id="mask" x="29.08" y="17.51" width="2.84" height="2.64" maskUnits="userSpaceOnUse"><g id="id34"><rect class="cls-2" x="29.53" y="17.69" width="1.94" height="2.29" transform="translate(1.93 40.48) rotate(-68.84)"/></g></mask><mask id="mask-1" x="29.08" y="17.51" width="2.84" height="2.64" maskUnits="userSpaceOnUse"><g id="id36"><rect class="cls-2" x="29.53" y="17.69" width="1.94" height="2.29" transform="translate(1.93 40.48) rotate(-68.84)"/></g></mask><mask id="mask-2" x="29.08" y="17.51" width="2.84" height="2.64" maskUnits="userSpaceOnUse"><g id="id38"><rect class="cls-2" x="29.53" y="17.69" width="1.94" height="2.29" transform="translate(1.93 40.48) rotate(-68.84)"/></g></mask></defs><g id="Layer_1-2"><path class="cls-5" d="m29.29,46.31c-.15-.17-.2-.4-.16-.69L34.35,3.58c.04-.29.15-.52.31-.69.17-.17.4-.25.69-.25h15.62c3.05,0,5.71.5,7.97,1.51,2.26,1,4.01,2.43,5.24,4.27,1.23,1.84,1.85,4,1.85,6.46,0,.42-.04,1.05-.13,1.88l-1.88,15.69c-.33,2.8-1.34,5.27-3.01,7.4-1.67,2.13-3.84,3.79-6.49,4.96-2.66,1.17-5.64,1.76-8.94,1.76h-15.62c-.29,0-.51-.08-.66-.25Zm12.77-9.85h5.21c1.34,0,2.52-.55,3.54-1.66,1.02-1.11,1.68-2.56,1.98-4.36l1.44-11.67c.04-.25.06-.63.06-1.13,0-1.51-.38-2.7-1.13-3.58s-1.78-1.32-3.07-1.32h-5.08c-.21,0-.36.13-.44.38l-2.82,22.96c0,.25.1.38.31.38Z"/><path class="cls-5" d="m98.47,32.31c-.08.59-.42.88-1,.88h-18.13c-.25,0-.38.1-.38.31,0,.5.1.92.31,1.25.33.71.98,1.31,1.95,1.79.96.48,2.09.72,3.39.72,1.09,0,2.12-.18,3.11-.53.98-.35,1.83-.83,2.54-1.41.21-.17.44-.25.69-.25s.46.13.63.38l3.83,6.09c.12.17.19.36.19.56,0,.29-.13.54-.38.75-1.63,1.42-3.54,2.48-5.74,3.17-2.2.69-4.49,1.04-6.87,1.04-3.81,0-6.94-.82-9.41-2.45-2.47-1.63-4.12-3.95-4.96-6.96-.42-1.3-.63-2.82-.63-4.58,0-1.09.04-1.9.12-2.45.29-2.51.94-4.85,1.95-7.03,1.51-3.18,3.62-5.67,6.34-7.47,2.72-1.8,5.79-2.7,9.22-2.7,2.68,0,5.05.66,7.12,1.98,2.07,1.32,3.68,3.12,4.83,5.4,1.15,2.28,1.73,4.84,1.73,7.69,0,1-.15,2.28-.44,3.83Zm-18.32-6.27l-.31.63c-.08.29.02.44.31.44h6.84c.21,0,.31-.1.31-.31l-.06-.75c-.12-.79-.48-1.41-1.07-1.85-.59-.44-1.34-.66-2.26-.66-1.63,0-2.89.84-3.76,2.51Z"/><path class="cls-5" d="m123.66,14.18c.19-.17.41-.25.66-.25h9.66c.25,0,.45.08.6.25.15.17.2.4.16.69l-3.76,30.75c-.04.29-.16.52-.34.69-.19.17-.41.25-.66.25h-9.6c-.29,0-.51-.08-.66-.25-.15-.17-.2-.4-.16-.69l.19-1.76c.04-.17,0-.27-.09-.31-.11-.04-.2.02-.28.19-1.8,2.22-4.27,3.33-7.4,3.33-2.72,0-5.05-.89-7-2.67-1.95-1.78-3.19-4.19-3.73-7.25-.17-1.05-.25-2.22-.25-3.51,0-1.21.06-2.38.19-3.51.42-3.01,1.19-5.69,2.32-8.03,1.3-2.55,3.08-4.63,5.36-6.24,2.28-1.61,4.84-2.42,7.69-2.42s4.96.92,6.21,2.76c.08.17.17.23.25.19.08-.04.15-.15.19-.31l.12-1.19c.04-.29.16-.52.35-.69Zm-2.23,16.13c.08-.84.12-1.44.12-1.82,0-1.13-.17-2.13-.5-3.01-.63-1.3-1.61-1.95-2.95-1.95-1.46,0-2.61.69-3.45,2.07-.8,1.3-1.3,2.87-1.51,4.71-.08.84-.13,1.42-.13,1.76,0,1.17.15,2.11.44,2.82.63,1.38,1.63,2.07,3.01,2.07s2.57-.71,3.45-2.13c.75-1.17,1.25-2.68,1.51-4.52Z"/><path class="cls-5" d="m135.14,46.31c-.15-.17-.2-.4-.16-.69l5.21-42.04c.04-.29.15-.52.31-.69.17-.17.4-.25.69-.25h9.6c.29,0,.51.08.66.25.15.17.2.4.16.69l-5.14,42.04c-.04.29-.16.52-.35.69-.19.17-.43.25-.72.25h-9.6c-.29,0-.51-.08-.66-.25Z"/><path class="cls-6" d="m150.96,46.31c-.15-.17-.2-.4-.16-.69l5.21-42.04c.04-.29.15-.52.31-.69.17-.17.4-.25.69-.25h15.62c3.05,0,5.71.5,7.97,1.51,2.26,1,4.01,2.43,5.24,4.27,1.23,1.84,1.85,4,1.85,6.46,0,.42-.04,1.05-.13,1.88l-1.88,15.69c-.33,2.8-1.34,5.27-3.01,7.4-1.67,2.13-3.84,3.79-6.49,4.96-2.66,1.17-5.64,1.76-8.94,1.76h-15.62c-.29,0-.51-.08-.66-.25Zm12.77-9.85h5.21c1.34,0,2.52-.55,3.54-1.66,1.02-1.11,1.68-2.56,1.98-4.36l1.44-11.67c.04-.25.06-.63.06-1.13,0-1.51-.38-2.7-1.13-3.58s-1.78-1.32-3.07-1.32h-5.08c-.21,0-.36.13-.44.38l-2.82,22.96c0,.25.1.38.31.38Z"/><path class="cls-6" d="m211.13,14.18c.19-.17.41-.25.66-.25h9.66c.25,0,.45.08.6.25.15.17.2.4.16.69l-3.76,30.75c-.04.29-.16.52-.34.69-.19.17-.41.25-.66.25h-9.6c-.29,0-.51-.08-.66-.25-.15-.17-.2-.4-.16-.69l.19-1.76c.04-.17,0-.27-.09-.31-.11-.04-.2.02-.28.19-1.8,2.22-4.27,3.33-7.4,3.33-2.72,0-5.05-.89-7-2.67-1.95-1.78-3.19-4.19-3.73-7.25-.17-1.05-.25-2.22-.25-3.51,0-1.21.06-2.38.19-3.51.42-3.01,1.19-5.69,2.32-8.03,1.3-2.55,3.08-4.63,5.36-6.24,2.28-1.61,4.84-2.42,7.69-2.42s4.96.92,6.21,2.76c.08.17.17.23.25.19.08-.04.15-.15.19-.31l.12-1.19c.04-.29.16-.52.35-.69Zm-2.23,16.13c.08-.84.12-1.44.12-1.82,0-1.13-.17-2.13-.5-3.01-.63-1.3-1.61-1.95-2.95-1.95-1.46,0-2.61.69-3.45,2.07-.8,1.3-1.3,2.87-1.51,4.71-.08.84-.13,1.42-.13,1.76,0,1.17.15,2.11.44,2.82.63,1.38,1.63,2.07,3.01,2.07s2.57-.71,3.45-2.13c.75-1.17,1.25-2.68,1.51-4.52Z"/><path class="cls-6" d="m226.44,44.64c-2.41-1.61-3.61-3.8-3.61-6.56,0-.5.02-.88.06-1.13l.06-.56c.04-.29.15-.52.31-.69.17-.17.4-.25.69-.25h9.16c.25,0,.46.06.63.19.17.13.23.29.19.5-.08.67.21,1.21.88,1.63.67.42,1.57.63,2.7.63.92,0,1.67-.16,2.26-.47.58-.31.88-.74.88-1.29,0-.5-.32-.88-.97-1.13-.65-.25-1.71-.48-3.17-.69-1.51-.21-2.86-.46-4.05-.75-1.19-.29-2.33-.73-3.42-1.32-2.84-1.55-4.27-3.85-4.27-6.9,0-2.51.66-4.71,1.98-6.59,1.32-1.88,3.15-3.33,5.49-4.33,2.34-1,4.98-1.51,7.91-1.51,3.93,0,7.06.89,9.38,2.67,2.32,1.78,3.48,4.17,3.48,7.18,0,.34-.04.84-.13,1.51,0,.21-.09.38-.28.5-.19.13-.41.19-.66.19h-8.85c-.63,0-.9-.23-.82-.69.08-.71-.15-1.26-.69-1.66-.54-.4-1.34-.6-2.38-.6-.96,0-1.77.18-2.42.53-.65.36-.97.83-.97,1.41s.37,1,1.1,1.25,1.91.48,3.55.69c.21.04.97.17,2.29.38,1.32.21,2.58.54,3.8,1,1.88.71,3.3,1.66,4.27,2.85.96,1.19,1.44,2.71,1.44,4.55,0,.59-.02,1.05-.06,1.38-.42,3.43-2.04,6.03-4.86,7.81-2.82,1.78-6.43,2.67-10.82,2.67s-7.67-.8-10.07-2.42Z"/><path class="cls-6" d="m283.76,16.03c1.76,1.74,2.64,4.13,2.64,7.18,0,.38-.04,1.03-.13,1.94l-2.51,20.46c-.04.29-.16.52-.34.69-.19.17-.43.25-.72.25h-9.6c-.29,0-.51-.08-.66-.25-.15-.17-.2-.4-.16-.69l2.2-17.88c.04-.17.06-.42.06-.75,0-1.04-.26-1.88-.78-2.51-.52-.63-1.25-.94-2.17-.94-1.05,0-1.92.39-2.63,1.16-.71.77-1.15,1.79-1.32,3.04l-2.2,17.88c-.04.29-.16.52-.35.69-.19.17-.43.25-.72.25h-9.6c-.29,0-.51-.08-.66-.25-.15-.17-.2-.4-.16-.69l5.21-42.04c.04-.29.15-.52.31-.69.17-.17.4-.25.69-.25h9.6c.29,0,.51.08.66.25.15.17.2.4.16.69l-1.63,13.43c-.04.21-.02.34.06.38.08.04.17-.02.25-.19,1.88-2.51,4.43-3.77,7.66-3.77,2.8,0,5.08.87,6.84,2.6Z"/><path class="cls-7" d="m298.74,36.46l-.07-.03c-.07-.07-.36-.56-1.03-3.91-.53-2.67-1.04-5.44-1.43-7.82,4.33-3.17,11.95-9.15,15.42-14.33,1.54-2.28,2.14-4.25,1.77-5.85-.24-1.63-1.47-2.9-3.45-3.56-2.93-1.16-6.99-1.05-9.88-.77-6.19.47-14.23,2.23-21.52,4.7-3.41,1.16-9.59,3.51-12.7,6.15-1.39,1.27-1.87,2.4-1.48,3.42.1.4.37.68.75.77.42.1.9-.06,1.18-.39.24-.29.29-.66.15-1-.13-.47.51-1.26,1.72-2.13,3.15-2.28,9.16-4.34,10.93-4.92,7.05-2.36,14.96-4.01,21.18-4.41,1.72-.17,6.02-.45,8.9.65,1.66.63,1.98,1.5,2.03,1.98.31,1.36-.95,3.35-1.5,4.15-2.29,3.4-6.94,7.83-13.85,13.16-.07-.67-.15-1.31-.23-1.91-.17-1.33-.31-2.48-.31-3.5-.26-3.35.03-4.04.05-4.07.18-.38.14-.8-.1-1.13-.25-.36-.68-.56-1.09-.52-.37.03-.66.25-.8.58-.41.61-.63,1.72-.42,5.43.19,1.94.41,4.13.83,6.71-.86.67-1.8,1.33-2.72,1.98-1.24.88-2.52,1.78-3.54,2.65-.31.15-.49.39-.5.69-.02.33.18.69.5.88.3.18.64.2.94.02,1.88-1.27,3.51-2.38,5.67-3.97.48,3,1,5.59,1.36,7.27.85,3.76,1.25,4.39,1.6,4.53.24.26.52.37.79.37.24,0,.46-.09.64-.22.43-.33.65-1.02.21-1.63v-.04Z"/><path class="cls-7" d="m318.13,23.12c.39-.04.69-.35.73-.75.04-.38-.17-.71-.56-.83-1.3-.29-2.58-.25-3.8.12-1.85.5-3.31,1.73-4.47,3.75-1,1.65-1.51,3.64-1.76,5.02-.21,1.08-.41,2.08-.57,2.78-.15-.41-.31-.78-.41-1-.4-1.61-.87-3.79-1.07-4.98-.11-.45-.4-.78-.8-.9-.38-.11-.81-.02-1.09.25-.28.27-.39.67-.29,1.08.22,1.29.71,3.48,1.09,5.1.67,2.01,1.09,3.04,1.66,3.42.23.15.52.22.82.22.4,0,.8-.12,1.1-.31.67-.47,1.01-1.33,1.17-1.83.14-.82.26-1.76.42-2.95l.06-.46c.43-1.89.95-3.27,1.67-4.37.8-1.42,1.63-2.46,3.09-2.92.79-.28,1.8-.44,2.99-.46h.02Z"/><path class="cls-7" d="m329.77,27.78c-.11-1.05-.67-2.1-1.68-3.11-.76-.78-1.85-1.43-2.9-1.75-.48-.15-1.15-.25-1.77.07-.17-.25-.41-.44-.68-.51-.33-.09-.69,0-1.02.24-.48.39-.94.86-1.45,1.49-1.49,1.83-2.4,4.06-2.43,5.97-.05,1.46.45,2.66,1.37,3.33.77.84,1.79,1.25,3.12,1.25.07,0,.14,0,.22,0,2.13.03,4.32-.95,5.85-2.62h0c.88-1,1.84-2.58,1.37-4.35Zm-5.04-2.71c.68.18,1.38.67,1.74,1.23.58.55.98,1.21,1.11,1.81h0c.22.84-.07,1.94-.72,2.73-1.28,1.38-3.12,2.05-4.25,2.09-.84-.1-1.45-.39-1.82-.86-.54-.66-.64-1.17-.63-1.81.06-1.36.69-2.79.86-3.16.2-.28.4-.56.59-.84.28-.4.54-.78.82-1.14.1.13.21.22.33.31l.13.1.06.04c.38.16.76.13,1.07-.1.18-.13.32-.32.39-.49.09,0,.2.03.33.1Z"/><path class="cls-4" d="m45.44,18.48c-.33-.72-.78-1.39-1.3-2.02l-.31,2.53c.03.06.08.13.11.19.6,1.29.8,2.67.45,3.88-.65,2.24-3.28,3.91-8.91,3.29l.66-5.98-5.19-.8c.55-.81,1.11-1.48,1.67-2.06l.31-2.5c-1.29.96-2.56,2.35-3.77,4.28l-4.91-.76-10.43-1.6c-.25-.04-.48.07-.61.29-.13.21-.11.47.04.67l.94,1.22c.45.58.33,1.42-.25,1.86L.52,31.26c-.58.45-.69,1.28-.25,1.86l14.23,18.57c.45.58,1.28.69,1.86.25l13.43-10.29h0c.58-.45,1.42-.34,1.86.25l.94,1.22c.15.2.4.28.64.21.24-.07.41-.26.43-.51l1.16-10.49.41-3.73c-1.48-.15-3.14-.44-4.99-.91-.97.64-2.28.43-3-.51-.75-.98-.57-2.38.41-3.13.98-.75,2.38-.57,3.13.41.25.33.4.71.45,1.1-.4-.1-.81-.2-1.23-.32-.42-.12-.86.13-.98.55l-.02.06c-.06.21-.04.42.07.61.11.19.27.32.49.38.42.12.84.22,1.24.32h0s.21.05.21.05h0s.01,0,.01,0c.15.04.31.07.46.11h0c.15.03.3.07.45.1h.02s0,0,0,0c.15.03.29.06.44.09h.02c.14.03.29.06.43.09h.02c.29.06.57.11.85.15h0s0,0,0,0h0c.14.02.27.04.41.06h0s0,0,0,0c.14.02.27.04.41.06h0c.13.02.27.04.4.05h0c.12.01.23.03.35.04h0c6.67.7,9.83-1.53,10.68-4.45.47-1.61.22-3.4-.54-5.04Zm-30.34,13.05l1.75-1.34c.23-.18.57-.13.75.1h0l1.34,1.75c.18.23.13.57-.1.75l-1.75,1.34c-.23.18-.57.13-.75-.1l-1.34-1.75c-.18-.23-.13-.57.1-.75Zm-2.42,5.31l-1.34-1.75c-.18-.23-.13-.57.1-.75l1.75-1.34c.23-.18.57-.13.75.1l1.34,1.75c.18.23.13.57-.1.75l-1.75,1.34c-.23.18-.57.13-.75-.1Zm5.31,2.42l-1.75,1.34c-.23.18-.57.13-.75-.1l-1.34-1.75c-.18-.23-.13-.57.1-.75l1.75-1.34c.23-.18.57-.13.75.1l1.34,1.75c.18.23.13.57-.1.75Zm3.67-2.81l-1.75,1.34c-.23.18-.57.13-.75-.1l-1.34-1.75c-.18-.23-.13-.57.1-.75l1.75-1.34c.23-.18.57-.13.75.1h0s1.34,1.75,1.34,1.75c.18.23.13.57-.1.75Z"/><g class="cls-1"><path class="cls-3" d="m29.16,19.29c.27-.43.54-.83.81-1.21l1.87.29c-.3.37-.59.76-.89,1.19l-1.8-.28Z"/></g><g class="cls-9"><path class="cls-3" d="m29.16,19.29c.27-.43.54-.83.81-1.21l1.87.29c-.3.37-.59.76-.89,1.19l-1.8-.28Z"/></g><g class="cls-8"><path class="cls-3" d="m29.16,19.29c.27-.43.54-.83.81-1.21l1.87.29c-.3.37-.59.76-.89,1.19l-1.8-.28Z"/></g></g></svg>