<svg width="128" height="20" viewBox="0 0 128 20" fill="none" xmlns="http://www.w3.org/2000/svg">
<g id="logo">
<g id="Group">
<path id="Vector" fill-rule="evenodd" clip-rule="evenodd" d="M11.6506 7.02334C11.7545 6.85608 11.8584 6.70049 11.9624 6.55267L12.6822 6.66548C12.5667 6.8094 12.4551 6.9611 12.3396 7.12836L11.6467 7.01945L11.6506 7.02334Z" fill="#365F35"/>
</g>
<g id="Group_2">
<path id="Vector_2" fill-rule="evenodd" clip-rule="evenodd" d="M11.6506 7.02334C11.7545 6.85608 11.8584 6.70049 11.9624 6.55267L12.6822 6.66548C12.5667 6.8094 12.4551 6.9611 12.3396 7.12836L11.6467 7.01945L11.6506 7.02334Z" fill="#365F35"/>
</g>
<g id="Group_3">
<path id="Vector_3" fill-rule="evenodd" clip-rule="evenodd" d="M11.6506 7.02334C11.7545 6.85608 11.8584 6.70049 11.9624 6.55267L12.6822 6.66548C12.5667 6.8094 12.4551 6.9611 12.3396 7.12836L11.6467 7.01945L11.6506 7.02334Z" fill="#365F35"/>
</g>
<g id="Layer_1-2">
<path id="Vector_4" fill-rule="evenodd" clip-rule="evenodd" d="M24.6326 3.25131C24.1568 2.53959 23.4799 1.99032 22.6057 1.59964C21.7316 1.21284 20.7026 1.01556 19.5229 1.01556H13.4809C13.3688 1.01556 13.2798 1.04651 13.214 1.11227C13.1483 1.17802 13.1096 1.26699 13.0941 1.37916L12.5449 5.80038L12.425 6.7674L12.3166 7.64545L13.7904 7.87367L13.5351 10.1868C13.8484 10.2216 14.1346 10.2371 14.4015 10.2371C15.3918 10.2371 16.0648 10.0127 16.4826 9.66459L16.7688 7.35148C16.7688 7.35148 16.7688 7.34761 16.7688 7.34374L16.8887 6.36512C16.8887 6.36512 16.8887 6.36898 16.8926 6.37285L17.0512 5.06931C17.0821 4.97261 17.1401 4.92232 17.2214 4.92232H19.1864C19.6892 4.92232 20.0837 5.09252 20.3739 5.43291C20.664 5.7733 20.8109 6.2336 20.8109 6.81768C20.8109 7.01109 20.8032 7.15807 20.7877 7.25477L20.2307 11.7688C20.1186 12.4651 19.8633 13.0259 19.4649 13.4553C19.0664 13.8847 18.61 14.0974 18.0956 14.0974H16.0803C15.9991 14.0974 15.9604 14.0471 15.9604 13.9504L16.3859 10.473C15.883 10.7167 15.2216 10.8637 14.3745 10.8637C14.0921 10.8637 13.7904 10.8482 13.4655 10.8134C13.419 10.8095 13.3765 10.8018 13.3301 10.7979C13.2798 10.7902 13.2295 10.7863 13.1754 10.7786C13.1251 10.7709 13.0709 10.7631 13.0168 10.7554C12.9665 10.7476 12.9123 10.7399 12.8582 10.7322C12.7499 10.7167 12.6416 10.6974 12.5294 10.6742H12.5217C12.4675 10.6626 12.4133 10.6509 12.3553 10.6393H12.3476C12.2934 10.6277 12.2354 10.6161 12.1774 10.6045H12.1697C12.1116 10.5929 12.0536 10.5813 11.9956 10.5658C11.9956 10.5658 11.9724 10.562 11.9608 10.5581L11.9298 10.8057C12.4791 10.9294 12.982 11.0145 13.4423 11.0571L13.2837 12.4999L12.835 16.5575C12.8234 16.6542 12.7615 16.7277 12.6686 16.7548C12.6454 16.7625 12.6261 16.7625 12.6029 16.7625C12.5333 16.7625 12.4675 16.7316 12.4211 16.6697L12.0575 16.1978C11.9569 16.0663 11.8022 15.9966 11.6475 15.9966C11.5392 15.9966 11.427 16.0314 11.3342 16.1011L11.2645 16.1552L11.0827 17.6367C11.0673 17.7489 11.0827 17.8378 11.1446 17.9036C11.2026 17.9694 11.2877 18.0003 11.3999 18.0003H17.4419C18.7183 18.0003 19.871 17.7721 20.8999 17.3195C21.9288 16.8669 22.7643 16.2287 23.4103 15.4009C24.0563 14.577 24.4469 13.6216 24.5746 12.5386L25.3018 6.46955C25.3327 6.14464 25.3521 5.90482 25.3521 5.74236C25.3521 4.78694 25.1123 3.9553 24.6365 3.24358L24.6326 3.25131Z" fill="white"/>
<path id="Vector_5" fill-rule="evenodd" clip-rule="evenodd" d="M11.2917 15.9114C11.342 15.8805 11.4 15.8573 11.4542 15.8379C11.5161 15.8224 11.578 15.807 11.6437 15.807C11.8681 15.807 12.0731 15.9075 12.2046 16.0855L12.5682 16.5574C12.5682 16.5574 12.5837 16.5729 12.5953 16.5729C12.6262 16.5651 12.6339 16.5574 12.6339 16.538L13.0826 12.4804L13.2219 11.231C13.0091 11.204 12.7809 11.1692 12.5527 11.1266C12.34 11.0879 12.1195 11.0415 11.899 10.9951C11.7791 10.968 11.6592 10.9448 11.5354 10.9139C11.3807 10.999 11.2066 11.0415 11.0326 11.0415C10.6999 11.0415 10.3943 10.8906 10.1932 10.6276C10.023 10.4033 9.94562 10.1248 9.98431 9.84627C10.023 9.56777 10.1661 9.31634 10.3905 9.14615C10.5761 9.00303 10.8005 8.92953 11.0326 8.92953C11.3652 8.92953 11.6708 9.08039 11.8719 9.34342C11.988 9.49427 12.0615 9.67607 12.0847 9.86174L12.1156 10.1402L12.0112 10.1132L11.8449 10.0706C11.6901 10.0319 11.5277 9.98939 11.3652 9.94684C11.3536 9.94684 11.3459 9.94297 11.3343 9.94297C11.284 9.94297 11.2376 9.97778 11.2221 10.0242L11.2144 10.0474C11.2066 10.0784 11.2066 10.1054 11.226 10.1364C11.2414 10.1673 11.2646 10.1828 11.2956 10.1905C11.458 10.2331 11.6166 10.2756 11.7714 10.3143L11.8526 10.3336C11.9183 10.3491 11.9764 10.3607 12.0344 10.3762C12.0924 10.3878 12.1504 10.4033 12.2046 10.4149C12.2703 10.4303 12.3245 10.442 12.3786 10.4497C12.4405 10.4613 12.4947 10.4729 12.5488 10.4845C12.6649 10.5077 12.7732 10.527 12.8776 10.5425L13.0362 10.5657C13.0904 10.5735 13.1445 10.5812 13.1948 10.5889C13.249 10.5967 13.2992 10.6005 13.3495 10.6083C13.396 10.6121 13.4424 10.6199 13.4849 10.6238C13.7982 10.6547 14.0961 10.674 14.3746 10.674C14.5835 10.674 14.7807 10.6663 14.9703 10.647C14.9896 10.647 15.0089 10.6392 15.0283 10.6392C15.1946 10.6199 15.3571 10.5967 15.5118 10.5657C15.5118 10.5657 15.5118 10.5657 15.5157 10.5657C16.5214 10.353 17.1789 9.83079 17.4071 9.04557C17.5657 8.49631 17.4961 7.85034 17.206 7.23145C17.1519 7.1154 17.0861 6.99549 17.0126 6.87945L16.9585 7.30494C16.9585 7.30494 16.9701 7.32815 16.9739 7.33588C17.237 7.90062 17.3027 8.48084 17.1596 8.97208C17.0784 9.25058 16.885 9.62966 16.444 9.93137C16.3937 9.96618 16.3357 10.001 16.2777 10.0319C16.2777 10.0319 16.2738 10.0319 16.2699 10.0319C16.2119 10.0629 16.1539 10.0938 16.0881 10.1209C16.0804 10.1209 16.0727 10.1286 16.0649 10.1325C16.003 10.1596 15.9411 10.1828 15.8754 10.206C15.8599 10.2099 15.8444 10.2176 15.829 10.2215C15.7671 10.2408 15.7052 10.264 15.6394 10.2795C15.6124 10.2872 15.5853 10.2911 15.5582 10.2988C15.4963 10.3143 15.4383 10.3298 15.3725 10.3414C15.3339 10.3491 15.2874 10.353 15.2488 10.3607C15.1946 10.3685 15.1366 10.3801 15.0786 10.3878C15.0167 10.3955 14.9548 10.3994 14.889 10.4033C14.8426 10.4071 14.8001 10.411 14.7498 10.4149C14.6337 10.4226 14.5138 10.4265 14.39 10.4265C14.1115 10.4265 13.8137 10.4071 13.5004 10.3762L13.307 10.3569L13.3263 10.1635L13.5623 8.03601L11.7365 7.75364L11.4348 7.70722L11.605 7.4558C11.7984 7.16956 12.0034 6.91426 12.2278 6.67831L12.2781 6.26056C11.9067 6.60482 11.5586 7.04191 11.2337 7.55637L11.1679 7.66467L11.0403 7.64533L9.14106 7.35136L5.10666 6.73246C5.08732 6.73246 5.07958 6.7402 5.07185 6.7518C5.06411 6.76728 5.06411 6.77888 5.07185 6.79435L5.43544 7.26626C5.55149 7.41711 5.5979 7.60278 5.5747 7.78845C5.55149 7.97799 5.45478 8.14431 5.30393 8.25649L0.124572 12.2445C-0.0146785 12.3528 -0.0417551 12.5539 0.0665512 12.6932L5.57083 19.8762C5.63272 19.9574 5.72555 20 5.82612 20C5.89575 20 5.96537 19.9768 6.01952 19.9342L11.2144 15.954C11.2376 15.9346 11.2685 15.9269 11.2917 15.9114ZM5.52828 12.0395L6.20519 11.5211C6.27482 11.467 6.35992 11.4399 6.44888 11.4399C6.57266 11.4399 6.6887 11.4979 6.76606 11.5946L7.28439 12.2716C7.41977 12.4456 7.38496 12.697 7.21089 12.8324L6.53398 13.3507C6.46435 13.4049 6.37926 13.432 6.29029 13.432C6.16651 13.432 6.05047 13.374 5.97311 13.2773L5.45479 12.6003C5.38903 12.5152 5.36195 12.4108 5.37742 12.3064C5.3929 12.2019 5.44705 12.1052 5.52828 12.0433V12.0395ZM4.55352 14.3642L4.0352 13.6873C3.89982 13.5132 3.93463 13.2618 4.10869 13.1264L4.78561 12.6081C4.85523 12.5539 4.94033 12.5268 5.0293 12.5268C5.15307 12.5268 5.26912 12.5849 5.34648 12.6816L5.8648 13.3585C6.00018 13.5325 5.96537 13.784 5.79131 13.9194L5.11439 14.4377C5.04477 14.4918 4.95967 14.5189 4.87071 14.5189C4.74693 14.5189 4.63088 14.4609 4.55352 14.3642ZM6.87824 15.3389L6.20132 15.8573C6.1317 15.9114 6.0466 15.9385 5.95764 15.9385C5.83386 15.9385 5.71781 15.8805 5.64045 15.7838L5.12213 15.1069C4.98675 14.9328 5.02156 14.6814 5.19562 14.546L5.87254 14.0277C5.94216 13.9735 6.02726 13.9464 6.11623 13.9464C6.24001 13.9464 6.35605 14.0045 6.43341 14.1012L6.95173 14.7781C7.01749 14.8632 7.04457 14.9676 7.02909 15.072C7.01362 15.1765 6.95947 15.2732 6.87824 15.3351V15.3389ZM8.29782 14.252L7.62091 14.7703C7.55128 14.8245 7.46619 14.8516 7.37722 14.8516C7.25344 14.8516 7.1374 14.7935 7.06004 14.6968L6.54172 14.0199C6.40633 13.8459 6.44115 13.5944 6.61521 13.4591L7.29212 12.9407C7.36175 12.8866 7.44685 12.8595 7.53581 12.8595C7.65959 12.8595 7.77563 12.9175 7.85299 13.0142L8.37132 13.6911C8.43707 13.7762 8.46415 13.8807 8.44868 13.9851C8.43321 14.0895 8.37905 14.1863 8.29782 14.2481V14.252Z" fill="white"/>
<path id="Vector_6" d="M37.8966 12.5114C37.8657 12.7396 37.7341 12.8518 37.5098 12.8518H30.497C30.4003 12.8518 30.35 12.8905 30.35 12.9717C30.35 13.1651 30.3887 13.3276 30.4699 13.4552C30.5975 13.7298 30.849 13.9619 31.2242 14.1476C31.5955 14.3333 32.0326 14.4261 32.5355 14.4261C32.9571 14.4261 33.3555 14.3565 33.7384 14.2211C34.1175 14.0857 34.4463 13.9 34.7209 13.6757C34.8021 13.6099 34.8911 13.579 34.9878 13.579C35.0845 13.579 35.1657 13.6293 35.2315 13.726L36.713 16.0816C36.7594 16.1474 36.7865 16.2209 36.7865 16.2982C36.7865 16.4104 36.7362 16.5071 36.6395 16.5883C36.009 17.1376 35.2702 17.5476 34.4192 17.8145C33.5682 18.0814 32.6824 18.2168 31.7618 18.2168C30.2881 18.2168 29.0774 17.8996 28.122 17.2691C27.1666 16.6386 26.5283 15.7412 26.2034 14.5769C26.0409 14.0741 25.9597 13.4861 25.9597 12.8054C25.9597 12.3837 25.9752 12.0704 26.0061 11.8577C26.1183 10.8868 26.3697 9.98167 26.7604 9.13843C27.3445 7.90838 28.1607 6.94523 29.2128 6.24897C30.2649 5.55272 31.4524 5.20459 32.7791 5.20459C33.8158 5.20459 34.7325 5.45988 35.5332 5.97047C36.3339 6.48106 36.9567 7.17731 37.4015 8.05923C37.8463 8.94115 38.0707 9.93138 38.0707 11.0338C38.0707 11.4206 38.0127 11.9157 37.9005 12.5153L37.8966 12.5114ZM30.8103 10.0861L30.6904 10.3298C30.6594 10.442 30.6981 10.5 30.8103 10.5H33.4561C33.5373 10.5 33.576 10.4613 33.576 10.3801L33.5528 10.09C33.5063 9.7844 33.3671 9.54457 33.1389 9.37438C32.9107 9.20418 32.6205 9.11909 32.2647 9.11909C31.6342 9.11909 31.1468 9.444 30.8103 10.09V10.0861Z" fill="white"/>
<path id="Vector_7" d="M47.6401 5.49852C47.7136 5.43276 47.7987 5.40182 47.8954 5.40182H51.6319C51.7286 5.40182 51.806 5.43276 51.864 5.49852C51.922 5.56428 51.9414 5.65324 51.9259 5.76542L50.4715 17.6598C50.456 17.7719 50.4096 17.8609 50.34 17.9267C50.2665 17.9924 50.1814 18.0234 50.0847 18.0234H46.3713C46.2592 18.0234 46.1741 17.9924 46.116 17.9267C46.058 17.8609 46.0387 17.7719 46.0542 17.6598L46.1276 16.979C46.1431 16.9132 46.1276 16.8745 46.0928 16.8591C46.0503 16.8436 46.0155 16.8668 45.9845 16.9326C45.2883 17.7913 44.3329 18.2206 43.1222 18.2206C42.07 18.2206 41.1688 17.8764 40.4145 17.1879C39.6602 16.4993 39.1806 15.5671 38.9717 14.3835C38.9059 13.9773 38.875 13.5248 38.875 13.0258C38.875 12.5578 38.8982 12.1052 38.9485 11.6681C39.111 10.5038 39.4088 9.46717 39.8459 8.56204C40.3487 7.57568 41.0373 6.77112 41.9192 6.14836C42.8011 5.52559 43.7913 5.21228 44.8937 5.21228C45.9961 5.21228 46.8123 5.56814 47.2958 6.27987C47.3268 6.34563 47.3616 6.36884 47.3925 6.35336C47.4235 6.33789 47.4505 6.29534 47.466 6.23345L47.5124 5.77315C47.5279 5.66098 47.5743 5.57201 47.6478 5.50625L47.6401 5.49852ZM46.7775 11.7377C46.8084 11.4128 46.8239 11.1807 46.8239 11.0337C46.8239 10.5966 46.7581 10.2098 46.6305 9.86945C46.3868 9.3666 46.0077 9.11517 45.4894 9.11517C44.9247 9.11517 44.4798 9.38207 44.1549 9.91586C43.8455 10.4187 43.6521 11.026 43.5708 11.7377C43.5399 12.0626 43.5206 12.287 43.5206 12.4185C43.5206 12.8711 43.5786 13.2347 43.6908 13.5093C43.9344 14.0431 44.3213 14.31 44.855 14.31C45.3888 14.31 45.8491 14.0354 46.1895 13.4861C46.4796 13.0335 46.673 12.4495 46.7736 11.7377H46.7775Z" fill="white"/>
<path id="Vector_8" d="M52.0802 17.9228C52.0222 17.8571 52.0028 17.7681 52.0183 17.6559L54.0336 1.39454C54.049 1.28237 54.0916 1.1934 54.1535 1.12765C54.2192 1.06189 54.3082 1.03094 54.4204 1.03094H58.1337C58.2459 1.03094 58.331 1.06189 58.389 1.12765C58.447 1.1934 58.4664 1.28237 58.4509 1.39454L56.4627 17.6559C56.4473 17.7681 56.4008 17.8571 56.3273 17.9228C56.2538 17.9886 56.161 18.0195 56.0488 18.0195H52.3355C52.2233 18.0195 52.1382 17.9886 52.0802 17.9228Z" fill="white"/>
<path id="Vector_9" d="M58.1998 17.9228C58.1418 17.8571 58.1225 17.7681 58.1379 17.6559L60.1532 1.39454C60.1687 1.28237 60.2112 1.1934 60.2731 1.12765C60.3389 1.06189 60.4278 1.03094 60.54 1.03094H66.5819C67.7617 1.03094 68.7906 1.22435 69.6648 1.61502C70.539 2.00183 71.2159 2.55497 71.6917 3.26669C72.1674 3.97842 72.4073 4.81393 72.4073 5.76547C72.4073 5.92793 72.3918 6.17162 72.357 6.49267L71.6298 12.5617C71.5021 13.6447 71.1115 14.6002 70.4655 15.4241C69.8195 16.248 68.9802 16.8901 67.9551 17.3426C66.9262 17.7952 65.7735 18.0234 64.4971 18.0234H58.4551C58.3429 18.0234 58.2578 17.9925 58.1998 17.9267V17.9228ZM63.1394 14.1128H65.1546C65.6729 14.1128 66.1294 13.9 66.5239 13.4707C66.9185 13.0413 67.1738 12.4805 67.2898 11.7842L67.8468 7.27015C67.8623 7.17345 67.87 7.02647 67.87 6.83306C67.87 6.24898 67.723 5.78868 67.4329 5.44829C67.1428 5.1079 66.7444 4.9377 66.2454 4.9377H64.2804C64.1992 4.9377 64.1412 4.98799 64.1102 5.08469L63.0194 13.9658C63.0194 14.0625 63.0581 14.1128 63.1394 14.1128Z" fill="white"/>
<path id="Vector_10" d="M81.4743 5.49852C81.5478 5.43276 81.6329 5.40182 81.7296 5.40182H85.4662C85.5629 5.40182 85.6402 5.43276 85.6982 5.49852C85.7563 5.56428 85.7756 5.65324 85.7601 5.76542L84.3057 17.6598C84.2903 17.7719 84.2438 17.8609 84.1742 17.9267C84.1007 17.9924 84.0156 18.0234 83.9189 18.0234H80.2056C80.0934 18.0234 80.0083 17.9924 79.9503 17.9267C79.8923 17.8609 79.8729 17.7719 79.8884 17.6598L79.9619 16.979C79.9773 16.9132 79.9619 16.8745 79.9271 16.8591C79.8845 16.8436 79.8497 16.8668 79.8188 16.9326C79.1225 17.7913 78.1671 18.2206 76.9564 18.2206C75.9043 18.2206 75.003 17.8764 74.2487 17.1879C73.4944 16.4993 73.0148 15.5671 72.8059 14.3835C72.7402 13.9773 72.7092 13.5248 72.7092 13.0258C72.7092 12.5578 72.7324 12.1052 72.7827 11.6681C72.9452 10.5038 73.243 9.46717 73.6801 8.56204C74.183 7.57568 74.8715 6.77112 75.7534 6.14836C76.6353 5.52559 77.6256 5.21228 78.728 5.21228C79.8304 5.21228 80.6465 5.56814 81.13 6.27987C81.161 6.34563 81.1958 6.36884 81.2267 6.35336C81.2577 6.33789 81.2848 6.29534 81.3002 6.23345L81.3466 5.77315C81.3621 5.66098 81.4085 5.57201 81.482 5.50625L81.4743 5.49852ZM80.6117 11.7377C80.6427 11.4128 80.6581 11.1807 80.6581 11.0337C80.6581 10.5966 80.5924 10.2098 80.4647 9.86945C80.221 9.3666 79.842 9.11517 79.3236 9.11517C78.7589 9.11517 78.3141 9.38207 77.9892 9.91586C77.6797 10.4187 77.4863 11.026 77.4051 11.7377C77.3741 12.0626 77.3548 12.287 77.3548 12.4185C77.3548 12.8711 77.4128 13.2347 77.525 13.5093C77.7687 14.0431 78.1555 14.31 78.6893 14.31C79.2231 14.31 79.6834 14.0354 80.0238 13.4861C80.3139 13.0335 80.5073 12.4495 80.6078 11.7377H80.6117Z" fill="white"/>
<path id="Vector_11" d="M87.3956 17.2807C86.4634 16.658 85.9993 15.8109 85.9993 14.7433C85.9993 14.5499 86.007 14.4029 86.0225 14.3062L86.0457 14.0896C86.0612 13.9774 86.1037 13.8884 86.1656 13.8227C86.2313 13.7569 86.3203 13.726 86.4325 13.726H89.9757C90.0724 13.726 90.1536 13.7492 90.2193 13.7995C90.2851 13.8497 90.3083 13.9116 90.2928 13.9929C90.2619 14.252 90.3741 14.4609 90.6332 14.6234C90.8924 14.7858 91.2405 14.867 91.6776 14.867C92.0335 14.867 92.3236 14.8052 92.5518 14.6853C92.7761 14.5653 92.8922 14.399 92.8922 14.1863C92.8922 13.9929 92.7684 13.8459 92.517 13.7492C92.2656 13.6525 91.8555 13.5635 91.2908 13.4823C90.7067 13.401 90.1845 13.3043 89.7242 13.1922C89.2639 13.08 88.823 12.9098 88.4013 12.6816C87.3028 12.082 86.7497 11.1924 86.7497 10.0126C86.7497 9.04172 87.005 8.19075 87.5156 7.46355C88.0261 6.73635 88.734 6.17548 89.6391 5.78867C90.5443 5.40186 91.5654 5.20459 92.6988 5.20459C94.2189 5.20459 95.4296 5.54885 96.327 6.23737C97.2244 6.92588 97.6731 7.85035 97.6731 9.01465C97.6731 9.14616 97.6577 9.33957 97.6228 9.59873C97.6228 9.67996 97.588 9.74571 97.5145 9.79213C97.441 9.84242 97.3559 9.86562 97.2592 9.86562H93.836C93.5923 9.86562 93.4879 9.77666 93.5188 9.59873C93.5498 9.32409 93.4608 9.11135 93.2519 8.95663C93.043 8.8019 92.7336 8.72454 92.3313 8.72454C91.96 8.72454 91.6467 8.79417 91.3952 8.92955C91.1438 9.0688 91.02 9.2506 91.02 9.47495C91.02 9.6993 91.1632 9.86176 91.4455 9.95846C91.7279 10.0552 92.1843 10.1441 92.8187 10.2254C92.8999 10.2408 93.1939 10.2911 93.7045 10.3723C94.2151 10.4536 94.7024 10.5812 95.1744 10.7591C95.9016 11.0338 96.4508 11.4013 96.826 11.8616C97.1974 12.3219 97.383 12.9098 97.383 13.6215C97.383 13.8497 97.3753 14.0277 97.3598 14.1553C97.1974 15.4821 96.5707 16.4878 95.4799 17.1763C94.3891 17.8648 92.9928 18.2091 91.2947 18.2091C89.5966 18.2091 88.3278 17.8996 87.3995 17.273L87.3956 17.2807Z" fill="white"/>
<path id="Vector_12" d="M109.568 6.21417C110.249 6.88722 110.59 7.81169 110.59 8.99145C110.59 9.13844 110.574 9.38986 110.539 9.74186L109.568 17.6559C109.553 17.7681 109.506 17.8571 109.437 17.9228C109.363 17.9886 109.27 18.0195 109.158 18.0195H105.445C105.333 18.0195 105.248 17.9886 105.19 17.9228C105.132 17.8571 105.112 17.7681 105.128 17.6559L105.979 10.7398C105.994 10.6741 106.002 10.5774 106.002 10.4497C106.002 10.0474 105.901 9.72252 105.7 9.47883C105.499 9.23514 105.217 9.11523 104.861 9.11523C104.455 9.11523 104.118 9.26608 103.844 9.56393C103.569 9.86177 103.399 10.2563 103.333 10.7398L102.482 17.6559C102.467 17.7681 102.42 17.8571 102.347 17.9228C102.273 17.9886 102.18 18.0195 102.068 18.0195H98.3548C98.2426 18.0195 98.1575 17.9886 98.0995 17.9228C98.0415 17.8571 98.0221 17.7681 98.0376 17.6559L100.053 1.39454C100.068 1.28237 100.111 1.1934 100.173 1.12765C100.239 1.06189 100.327 1.03094 100.44 1.03094H104.153C104.265 1.03094 104.35 1.06189 104.408 1.12765C104.466 1.1934 104.486 1.28237 104.47 1.39454L103.84 6.58937C103.824 6.6706 103.832 6.72089 103.863 6.73636C103.894 6.75183 103.929 6.72862 103.96 6.66287C104.687 5.69198 105.673 5.2046 106.923 5.2046C108.006 5.2046 108.888 5.54112 109.568 6.2103V6.21417Z" fill="white"/>
<path id="Vector_13" d="M115.362 14.1012L115.335 14.0896C115.308 14.0625 115.196 13.873 114.936 12.5772C114.731 11.5444 114.534 10.4729 114.383 9.55233C116.058 8.32615 119.006 6.01304 120.348 4.00937C120.944 3.12745 121.176 2.36544 121.033 1.74655C120.94 1.11605 120.464 0.624803 119.698 0.36951C118.565 -0.0791875 116.994 -0.0366386 115.876 0.0716676C113.482 0.253467 110.372 0.934249 107.552 1.88966C106.233 2.33836 103.843 3.24736 102.64 4.26853C102.102 4.75978 101.917 5.19687 102.067 5.59142C102.106 5.74614 102.211 5.85444 102.357 5.88926C102.52 5.92794 102.706 5.86605 102.814 5.7384C102.907 5.62623 102.926 5.48311 102.872 5.35159C102.822 5.1698 103.069 4.86422 103.537 4.52769C104.756 3.64577 107.08 2.84895 107.765 2.6246C110.492 1.71173 113.552 1.0735 115.958 0.918777C116.623 0.853019 118.286 0.744713 119.4 1.1702C120.042 1.41389 120.166 1.75041 120.185 1.93608C120.305 2.46214 119.818 3.23189 119.605 3.54133C118.719 4.85648 116.921 6.57004 114.248 8.63173C114.221 8.37256 114.19 8.12501 114.159 7.89292C114.093 7.37847 114.039 6.93364 114.039 6.53909C113.939 5.24329 114.051 4.97639 114.058 4.96479C114.128 4.8178 114.113 4.65534 114.02 4.52769C113.923 4.38844 113.757 4.31108 113.598 4.32655C113.455 4.33816 113.343 4.42326 113.289 4.5509C113.13 4.78686 113.045 5.21621 113.126 6.65127C113.2 7.40168 113.285 8.24879 113.447 9.24675C113.115 9.50591 112.751 9.7612 112.395 10.0126C111.916 10.353 111.42 10.7011 111.026 11.0377C110.906 11.0957 110.836 11.1885 110.832 11.3046C110.825 11.4322 110.902 11.5715 111.026 11.645C111.142 11.7146 111.273 11.7223 111.389 11.6527C112.117 11.1614 112.747 10.7321 113.583 10.1171C113.768 11.2775 113.969 12.2793 114.109 12.9292C114.438 14.3836 114.592 14.6272 114.728 14.6814C114.82 14.782 114.929 14.8245 115.033 14.8245C115.126 14.8245 115.211 14.7897 115.281 14.7394C115.447 14.6118 115.532 14.3449 115.362 14.1089V14.0935V14.1012Z" fill="white"/>
<path id="Vector_14" d="M122.863 8.94113C123.014 8.92566 123.13 8.80575 123.145 8.65103C123.161 8.50404 123.079 8.37639 122.929 8.32998C122.426 8.2178 121.931 8.23327 121.459 8.37639C120.743 8.5698 120.178 9.04557 119.73 9.82692C119.343 10.4652 119.146 11.2349 119.049 11.7687C118.968 12.1864 118.89 12.5733 118.828 12.844C118.77 12.6854 118.709 12.5423 118.67 12.4572C118.515 11.8345 118.333 10.9912 118.256 10.5309C118.213 10.3568 118.101 10.2292 117.947 10.1828C117.8 10.1402 117.633 10.175 117.525 10.2795C117.417 10.3839 117.374 10.5386 117.413 10.6972C117.498 11.1962 117.687 12.0433 117.834 12.67C118.093 13.4474 118.256 13.8459 118.476 13.9928C118.565 14.0509 118.678 14.0779 118.794 14.0779C118.948 14.0779 119.103 14.0315 119.219 13.958C119.478 13.7762 119.61 13.4436 119.672 13.2502C119.726 12.933 119.772 12.5694 119.834 12.1091L119.857 11.9312C120.024 11.2001 120.225 10.6663 120.503 10.2408C120.813 9.69154 121.134 9.28926 121.699 9.11133C122.004 9.00302 122.395 8.94113 122.855 8.9334H122.863V8.94113Z" fill="white"/>
<path id="Vector_15" d="M127.365 10.7437C127.322 10.3375 127.106 9.93139 126.715 9.54071C126.421 9.239 125.999 8.98758 125.593 8.8638C125.407 8.80578 125.148 8.76709 124.908 8.89087C124.843 8.79417 124.75 8.72068 124.645 8.6936C124.518 8.65879 124.379 8.6936 124.251 8.78643C124.065 8.93729 123.887 9.11909 123.69 9.36278C123.114 10.0706 122.762 10.9332 122.75 11.672C122.731 12.2368 122.924 12.7009 123.28 12.9601C123.578 13.285 123.972 13.4436 124.487 13.4436C124.514 13.4436 124.541 13.4436 124.572 13.4436C125.396 13.4552 126.243 13.0761 126.835 12.4302C127.175 12.0434 127.547 11.4322 127.365 10.7476V10.7437ZM125.415 9.69543C125.678 9.76506 125.949 9.95459 126.088 10.1712C126.313 10.384 126.467 10.6392 126.518 10.8713C126.603 11.1962 126.491 11.6217 126.239 11.9273C125.744 12.4611 125.032 12.7203 124.595 12.7357C124.27 12.6971 124.034 12.5849 123.891 12.4031C123.682 12.1478 123.644 11.9505 123.647 11.703C123.671 11.1769 123.914 10.6238 123.98 10.4807C124.058 10.3723 124.135 10.264 124.208 10.1557C124.317 10.001 124.417 9.85403 124.526 9.71477C124.564 9.76506 124.607 9.79987 124.653 9.83468L124.703 9.87337L124.727 9.88884C124.874 9.95073 125.021 9.93912 125.141 9.85016C125.21 9.79987 125.264 9.72638 125.291 9.66062C125.326 9.66062 125.369 9.67222 125.419 9.6993L125.415 9.69543Z" fill="white"/>
</g>
</g>
</svg>
