<svg width="200" height="20" viewBox="0 0 22 22" fill="none" xmlns="http://www.w3.org/2000/svg">
<path d="M1.65234 9.83203L2.16419 9.28384L2.16408 9.28374L1.65234 9.83203ZM4.18359 0.832031L4.30168 1.57275L4.3121 1.57094L4.18359 0.832031ZM8.57812 2.20312L9.10852 1.67273L9.10023 1.6647L8.57812 2.20312ZM9 2.625L8.46967 3.15533L9 3.68566L9.53033 3.15533L9 2.625ZM13.7812 0.832031L13.65 1.57057L13.6632 1.57268L13.7812 0.832031ZM16.3125 9.83203L15.8008 9.28374L15.8007 9.28384L16.3125 9.83203ZM9.94922 15.7734L9.43737 15.2252L9.42798 15.234L9.41889 15.2431L9.94922 15.7734ZM8.01562 15.7734L8.54595 15.2431L8.53687 15.234L8.52747 15.2252L8.01562 15.7734ZM2.16408 9.28374C1.26663 8.44612 0.75 7.24083 0.75 5.96484H-0.75C-0.75 7.64198 -0.0713205 9.24919 1.1406 10.3803L2.16408 9.28374ZM0.75 5.96484V5.78906H-0.75V5.96484H0.75ZM0.75 5.78906C0.75 3.68722 2.24926 1.89987 4.30167 1.57268L4.06552 0.0913839C1.26636 0.537627 -0.75 2.96903 -0.75 5.78906H0.75ZM4.3121 1.57094C5.68518 1.33214 7.06251 1.77815 8.05602 2.74155L9.10023 1.6647C7.77343 0.3781 5.91638 -0.230581 4.05509 0.0931224L4.3121 1.57094ZM8.0478 2.73346L8.46967 3.15533L9.53033 2.09467L9.10845 1.67279L8.0478 2.73346ZM9.53033 3.15533L9.9522 2.73346L8.89155 1.67279L8.46967 2.09467L9.53033 3.15533ZM9.9522 2.73346C10.9048 1.78083 12.3105 1.33233 13.65 1.57045L13.9125 0.0936094C12.0879 -0.230763 10.1889 0.375421 8.89155 1.67279L9.9522 2.73346ZM13.6632 1.57268C15.7231 1.90107 17.25 3.69488 17.25 5.78906H18.75C18.75 2.96137 16.691 0.536432 13.8993 0.0913839L13.6632 1.57268ZM17.25 5.78906V5.96484H18.75V5.78906H17.25ZM17.25 5.96484C17.25 7.22856 16.7071 8.43779 15.8008 9.28374L16.8242 10.3803C18.0272 9.25752 18.75 7.65425 18.75 5.96484H17.25ZM15.8007 9.28384L9.43737 15.2252L10.4611 16.3216L16.8243 10.3802L15.8007 9.28384ZM9.41889 15.2431C9.35261 15.3094 9.21588 15.375 9 15.375V16.875C9.48724 16.875 10.0536 16.7297 10.4795 16.3038L9.41889 15.2431ZM9 15.375C8.73877 15.375 8.60683 15.304 8.54595 15.2431L7.4853 16.3038C7.91661 16.7351 8.48779 16.875 9 16.875V15.375ZM8.52747 15.2252L2.16419 9.28384L1.1405 10.3802L7.50378 16.3216L8.52747 15.2252Z" fill="#727373"/>
</svg>
