<svg width="28" height="28" viewBox="0 0 28 28" fill="none" xmlns="http://www.w3.org/2000/svg">
<g id="Group 4">
<circle id="Ellipse 7" cx="14" cy="14" r="14" fill="#58A053"/>
<path id="Vector" d="M18.7074 12.2492C18.7074 13.4608 18.314 14.58 17.6513 15.4881L20.9938 18.8326C21.3239 19.1626 21.3239 19.6984 20.9938 20.0284C20.6638 20.3583 20.1279 20.3583 19.7978 20.0284L16.4553 16.6839C15.5471 17.3491 14.4276 17.7398 13.2158 17.7398C10.1822 17.7398 7.72412 15.2822 7.72412 12.2492C7.72412 9.21617 10.1822 6.75861 13.2158 6.75861C16.2494 6.75861 18.7074 9.21617 18.7074 12.2492ZM13.2158 16.0503C13.715 16.0503 14.2094 15.952 14.6707 15.761C15.132 15.57 15.5511 15.29 15.9041 14.937C16.2572 14.584 16.5372 14.165 16.7283 13.7038C16.9193 13.2426 17.0177 12.7484 17.0177 12.2492C17.0177 11.75 16.9193 11.2557 16.7283 10.7945C16.5372 10.3334 16.2572 9.91432 15.9041 9.56135C15.5511 9.20838 15.132 8.92839 14.6707 8.73736C14.2094 8.54633 13.715 8.44801 13.2158 8.44801C12.7165 8.44801 12.2221 8.54633 11.7608 8.73736C11.2996 8.92839 10.8805 9.20838 10.5274 9.56135C10.1744 9.91432 9.89433 10.3334 9.70326 10.7945C9.5122 11.2557 9.41386 11.75 9.41386 12.2492C9.41386 12.7484 9.5122 13.2426 9.70326 13.7038C9.89433 14.165 10.1744 14.584 10.5274 14.937C10.8805 15.29 11.2996 15.57 11.7608 15.761C12.2221 15.952 12.7165 16.0503 13.2158 16.0503Z" fill="white"/>
</g>
</svg>
