<svg width="35" height="35" viewBox="0 0 35 35" fill="none" xmlns="http://www.w3.org/2000/svg">
<g id="Mask group">
<mask id="mask0_23_67" style="mask-type:alpha" maskUnits="userSpaceOnUse" x="0" y="0" width="35" height="35">
<circle id="Ellipse 5" cx="17.5" cy="17.5" r="17.5" fill="#D9D9D9"/>
</mask>
<g mask="url(#mask0_23_67)">
<circle id="Ellipse 4" cx="17.5" cy="17.5" r="17" fill="#727373" stroke="black"/>
<path id="Vector" d="M17.5 20.5C19.546 20.5 21.5081 19.6835 22.9548 18.2301C24.4015 16.7767 25.2143 14.8054 25.2143 12.75C25.2143 10.6946 24.4015 8.72333 22.9548 7.26992C21.5081 5.81652 19.546 5 17.5 5C15.454 5 13.4919 5.81652 12.0452 7.26992C10.5985 8.72333 9.78571 10.6946 9.78571 12.75C9.78571 14.8054 10.5985 16.7767 12.0452 18.2301C13.4919 19.6835 15.454 20.5 17.5 20.5ZM14.7458 23.4062C8.80938 23.4062 4 28.2379 4 34.2018C4 35.1947 4.80156 36 5.78996 36H29.21C30.1984 36 31 35.1947 31 34.2018C31 28.2379 26.1906 23.4062 20.2542 23.4062H14.7458Z" fill="white"/>
<circle id="Ellipse 6" cx="17.5" cy="17.5" r="17" stroke="#727373"/>
</g>
</g>
</svg>
