<svg width="83" height="18" viewBox="0 0 83 18" fill="none" xmlns="http://www.w3.org/2000/svg">
<rect width="83" height="18" rx="9" fill="#58A053"/>
<path d="M23.98 5.12C23.9867 5.08667 24 5.06 24.02 5.04C24.0467 5.01333 24.0767 5 24.11 5H25.49C25.5233 5 25.55 5.01333 25.57 5.04C25.59 5.06 25.5967 5.08667 25.59 5.12L24.76 11.88C24.7533 11.9133 24.7367 11.9433 24.71 11.97C24.69 11.99 24.6633 12 24.63 12H23.31C23.2433 12 23.2 11.9733 23.18 11.92L21.42 8.1C21.4067 8.08 21.3933 8.07333 21.38 8.08C21.3667 8.08 21.36 8.09333 21.36 8.12L20.91 11.88C20.9033 11.9133 20.8867 11.9433 20.86 11.97C20.84 11.99 20.8133 12 20.78 12H19.4C19.3667 12 19.34 11.99 19.32 11.97C19.3 11.9433 19.2933 11.9133 19.3 11.88L20.13 5.12C20.13 5.08667 20.1433 5.06 20.17 5.04C20.1967 5.01333 20.2267 5 20.26 5H21.59C21.65 5 21.69 5.02667 21.71 5.08L23.47 8.89C23.4767 8.91 23.4867 8.92 23.5 8.92C23.5133 8.91333 23.5233 8.89667 23.53 8.87L23.98 5.12ZM31.1867 6.3C31.1801 6.33333 31.1634 6.36333 31.1367 6.39C31.1167 6.41 31.0901 6.42 31.0567 6.42H28.0167C27.9767 6.42 27.9567 6.43667 27.9567 6.47L27.8067 7.7C27.8067 7.73333 27.8201 7.75 27.8467 7.75H29.7967C29.8301 7.75 29.8567 7.76333 29.8767 7.79C29.8967 7.81 29.9034 7.83667 29.8967 7.87L29.7567 9.04C29.7501 9.07333 29.7334 9.10333 29.7067 9.13C29.6867 9.15 29.6601 9.16 29.6267 9.16H27.6767C27.6501 9.16 27.6301 9.17667 27.6167 9.21L27.4567 10.53C27.4567 10.5633 27.4701 10.58 27.4967 10.58H30.5467C30.5801 10.58 30.6067 10.5933 30.6267 10.62C30.6467 10.64 30.6534 10.6667 30.6467 10.7L30.5067 11.88C30.5001 11.9133 30.4834 11.9433 30.4567 11.97C30.4367 11.99 30.4101 12 30.3767 12H25.7867C25.7534 12 25.7267 11.99 25.7067 11.97C25.6867 11.9433 25.6801 11.9133 25.6867 11.88L26.5167 5.12C26.5167 5.08667 26.5301 5.06 26.5567 5.04C26.5834 5.01333 26.6134 5 26.6467 5H31.2367C31.2701 5 31.2967 5.01333 31.3167 5.04C31.3367 5.06 31.3434 5.08667 31.3367 5.12L31.1867 6.3ZM32.972 12C32.9053 12 32.8653 11.9667 32.852 11.9L31.872 5.13V5.11C31.872 5.03667 31.912 5 31.992 5H33.462C33.5286 5 33.5653 5.03333 33.572 5.1L33.972 8.74C33.972 8.76667 33.9786 8.78 33.992 8.78C34.012 8.78 34.0253 8.76667 34.032 8.74L35.232 5.11C35.252 5.03667 35.2986 5 35.372 5H36.722C36.7886 5 36.8253 5.03333 36.832 5.1L37.232 8.74C37.232 8.76667 37.2386 8.78 37.252 8.78C37.272 8.78 37.2853 8.76667 37.292 8.74L38.522 5.11C38.542 5.03667 38.5886 5 38.662 5H40.092C40.1853 5 40.2186 5.04333 40.192 5.13L37.712 11.9C37.692 11.9667 37.6453 12 37.572 12H36.182C36.1086 12 36.072 11.9633 36.072 11.89L35.702 8.03C35.6953 8.00333 35.6853 7.99 35.672 7.99C35.6586 7.99 35.6486 8.00333 35.642 8.03L34.412 11.89C34.392 11.9633 34.3453 12 34.272 12H32.972ZM42.0953 12C42.062 12 42.0353 11.99 42.0153 11.97C41.9953 11.9433 41.9886 11.9133 41.9953 11.88L42.8253 5.12C42.8253 5.08667 42.8386 5.06 42.8653 5.04C42.892 5.01333 42.922 5 42.9553 5H44.3253C44.3986 5 44.4353 5.04 44.4353 5.12L43.7653 10.53C43.7653 10.5633 43.7786 10.58 43.8053 10.58H46.9053C46.9386 10.58 46.9653 10.5933 46.9853 10.62C47.0053 10.64 47.012 10.6667 47.0053 10.7L46.8653 11.88C46.8586 11.9133 46.842 11.9433 46.8153 11.97C46.7886 11.99 46.7586 12 46.7253 12H42.0953ZM47.652 12C47.6186 12 47.592 11.99 47.572 11.97C47.552 11.9433 47.5453 11.9133 47.552 11.88L48.382 5.12C48.382 5.08667 48.3953 5.06 48.422 5.04C48.4486 5.01333 48.4786 5 48.512 5H49.882C49.9553 5 49.992 5.04 49.992 5.12L49.162 11.88C49.1553 11.9133 49.1386 11.9433 49.112 11.97C49.092 11.99 49.0653 12 49.032 12H47.652ZM52.5603 12.08C51.8136 12.08 51.2236 11.9133 50.7903 11.58C50.3636 11.24 50.1503 10.78 50.1503 10.2C50.1503 10.14 50.157 10.0433 50.1703 9.91L50.2003 9.72C50.207 9.68667 50.2203 9.66 50.2403 9.64C50.267 9.61333 50.297 9.6 50.3303 9.6H51.6803C51.7136 9.6 51.7403 9.61333 51.7603 9.64C51.7803 9.66 51.787 9.68667 51.7803 9.72L51.7603 9.84C51.7336 10.06 51.817 10.2533 52.0103 10.42C52.2103 10.58 52.4903 10.66 52.8503 10.66C53.157 10.66 53.3836 10.59 53.5303 10.45C53.6836 10.3033 53.7603 10.1433 53.7603 9.97C53.7603 9.81 53.6903 9.68667 53.5503 9.6C53.4103 9.50667 53.157 9.39333 52.7903 9.26L52.5603 9.18C52.187 9.04667 51.8636 8.90667 51.5903 8.76C51.317 8.61333 51.0803 8.41333 50.8803 8.16C50.687 7.90667 50.5903 7.59667 50.5903 7.23C50.5903 7.17667 50.597 7.09 50.6103 6.97C50.6636 6.55667 50.8136 6.19667 51.0603 5.89C51.3136 5.57667 51.637 5.33667 52.0303 5.17C52.4236 5.00333 52.857 4.92 53.3303 4.92C53.7903 4.92 54.197 5 54.5503 5.16C54.9103 5.32 55.1903 5.55 55.3903 5.85C55.5903 6.14333 55.6903 6.48333 55.6903 6.87C55.6903 6.93 55.6836 7.02667 55.6703 7.16L55.6503 7.3C55.6503 7.33333 55.637 7.36333 55.6103 7.39C55.5836 7.41 55.5536 7.42 55.5203 7.42H54.1803C54.147 7.42 54.117 7.41 54.0903 7.39C54.0703 7.36333 54.0636 7.33333 54.0703 7.3L54.0803 7.23C54.107 6.99667 54.0303 6.79 53.8503 6.61C53.677 6.43 53.4236 6.34 53.0903 6.34C52.817 6.34 52.6003 6.40333 52.4403 6.53C52.2803 6.65 52.2003 6.82 52.2003 7.04C52.2003 7.16 52.2436 7.26333 52.3303 7.35C52.417 7.43667 52.547 7.52 52.7203 7.6C52.8936 7.67333 53.1603 7.77667 53.5203 7.91C53.927 8.05667 54.2403 8.18333 54.4603 8.29C54.687 8.39667 54.897 8.57 55.0903 8.81C55.2903 9.04333 55.3903 9.34667 55.3903 9.72C55.3903 9.77333 55.3836 9.86 55.3703 9.98C55.2903 10.6267 54.9936 11.14 54.4803 11.52C53.9736 11.8933 53.3336 12.08 52.5603 12.08ZM61.6418 5C61.6751 5 61.7018 5.01333 61.7218 5.04C61.7418 5.06 61.7485 5.08667 61.7418 5.12L61.5918 6.31C61.5918 6.34333 61.5785 6.37333 61.5518 6.4C61.5251 6.42 61.4951 6.43 61.4618 6.43H59.7718C59.7318 6.43 59.7118 6.44667 59.7118 6.48L59.0518 11.88C59.0451 11.9133 59.0285 11.9433 59.0018 11.97C58.9818 11.99 58.9551 12 58.9218 12H57.5418C57.5085 12 57.4818 11.99 57.4618 11.97C57.4418 11.9433 57.4351 11.9133 57.4418 11.88L58.1018 6.48C58.1018 6.44667 58.0885 6.43 58.0618 6.43H56.4218C56.3885 6.43 56.3618 6.42 56.3418 6.4C56.3218 6.37333 56.3151 6.34333 56.3218 6.31L56.4618 5.12C56.4685 5.08667 56.4818 5.06 56.5018 5.04C56.5285 5.01333 56.5585 5 56.5918 5H61.6418ZM61.7145 12C61.6811 12 61.6545 11.99 61.6345 11.97C61.6145 11.9433 61.6078 11.9133 61.6145 11.88L62.4445 5.12C62.4445 5.08667 62.4578 5.06 62.4845 5.04C62.5111 5.01333 62.5411 5 62.5745 5H63.9445C64.0178 5 64.0545 5.04 64.0545 5.12L63.2245 11.88C63.2178 11.9133 63.2011 11.9433 63.1745 11.97C63.1545 11.99 63.1278 12 63.0945 12H61.7145ZM68.8628 5.12C68.8695 5.08667 68.8828 5.06 68.9028 5.04C68.9295 5.01333 68.9595 5 68.9928 5H70.3728C70.4061 5 70.4328 5.01333 70.4528 5.04C70.4728 5.06 70.4795 5.08667 70.4728 5.12L69.6428 11.88C69.6361 11.9133 69.6195 11.9433 69.5928 11.97C69.5728 11.99 69.5461 12 69.5128 12H68.1928C68.1261 12 68.0828 11.9733 68.0628 11.92L66.3028 8.1C66.2895 8.08 66.2761 8.07333 66.2628 8.08C66.2495 8.08 66.2428 8.09333 66.2428 8.12L65.7928 11.88C65.7861 11.9133 65.7695 11.9433 65.7428 11.97C65.7228 11.99 65.6961 12 65.6628 12H64.2828C64.2495 12 64.2228 11.99 64.2028 11.97C64.1828 11.9433 64.1761 11.9133 64.1828 11.88L65.0128 5.12C65.0128 5.08667 65.0261 5.06 65.0528 5.04C65.0795 5.01333 65.1095 5 65.1428 5H66.4728C66.5328 5 66.5728 5.02667 66.5928 5.08L68.3528 8.89C68.3595 8.91 68.3695 8.92 68.3828 8.92C68.3961 8.91333 68.4061 8.89667 68.4128 8.87L68.8628 5.12ZM73.0588 12.08C72.3522 12.08 71.7922 11.8833 71.3788 11.49C70.9655 11.0967 70.7588 10.57 70.7588 9.91C70.7588 9.73667 70.7655 9.60667 70.7788 9.52L71.0288 7.47C71.0888 6.96333 71.2488 6.52 71.5088 6.14C71.7755 5.75333 72.1188 5.45333 72.5388 5.24C72.9588 5.02667 73.4255 4.92 73.9388 4.92C74.4122 4.92 74.8255 5.01 75.1788 5.19C75.5322 5.36333 75.8022 5.60333 75.9888 5.91C76.1822 6.21667 76.2788 6.56 76.2788 6.94C76.2788 7 76.2722 7.09667 76.2588 7.23L76.2488 7.28C76.2422 7.31333 76.2255 7.34333 76.1988 7.37C76.1788 7.39 76.1522 7.4 76.1188 7.4H74.7388C74.7055 7.4 74.6788 7.39 74.6588 7.37C74.6388 7.34333 74.6322 7.31333 74.6388 7.28C74.6455 7.25333 74.6488 7.21333 74.6488 7.16C74.6488 6.92667 74.5722 6.73333 74.4188 6.58C74.2655 6.42 74.0488 6.34 73.7688 6.34C73.4755 6.34 73.2255 6.44 73.0188 6.64C72.8122 6.84 72.6888 7.1 72.6488 7.42L72.3788 9.57C72.3722 9.60333 72.3688 9.65667 72.3688 9.73C72.3688 10.0033 72.4555 10.2267 72.6288 10.4C72.8088 10.5667 73.0355 10.65 73.3088 10.65C73.5955 10.65 73.8355 10.5733 74.0288 10.42C74.2222 10.26 74.3355 10.04 74.3688 9.76L74.3988 9.48C74.4122 9.44667 74.3988 9.43 74.3588 9.43H73.3888C73.3555 9.43 73.3288 9.42 73.3088 9.4C73.2888 9.37333 73.2822 9.34333 73.2888 9.31L73.4188 8.21C73.4255 8.17667 73.4388 8.15 73.4588 8.13C73.4855 8.10333 73.5155 8.09 73.5488 8.09H76.0388C76.0722 8.09 76.0988 8.10333 76.1188 8.13C76.1388 8.15 76.1455 8.17667 76.1388 8.21L75.9688 9.57C75.9088 10.07 75.7488 10.51 75.4888 10.89C75.2288 11.27 74.8888 11.5633 74.4688 11.77C74.0488 11.9767 73.5788 12.08 73.0588 12.08Z" fill="white"/>
<path d="M10.1211 3.40625L11 4.30469L11.8789 3.40625C11.9961 3.26953 12.1523 3.23047 12.3281 3.26953C12.4844 3.32812 12.6211 3.44531 12.6602 3.62109L12.9727 4.83203L14.1836 4.5C14.3398 4.44141 14.5156 4.5 14.6328 4.61719C14.75 4.73438 14.8086 4.91016 14.75 5.06641L14.418 6.27734L15.6289 6.58984C15.8047 6.62891 15.9219 6.76562 15.9805 6.92188C16.0195 7.07812 15.9805 7.25391 15.8438 7.37109L14.9453 8.25L15.8438 9.12891C15.9805 9.26562 16.0195 9.42188 15.9805 9.59766C15.9219 9.75391 15.8047 9.89062 15.6289 9.92969L14.418 10.2422L14.75 11.4531C14.8086 11.6094 14.75 11.7852 14.6328 11.9023C14.5156 12.0195 14.3398 12.0781 14.1836 12.0195L12.9727 11.6875L12.6602 12.8984C12.6211 13.0742 12.4844 13.1914 12.3281 13.25C12.1719 13.2891 11.9961 13.2305 11.8789 13.1133L11 12.2148L10.1211 13.1133C9.98438 13.2305 9.82812 13.2891 9.65234 13.25C9.49609 13.1914 9.35938 13.0742 9.32031 12.8984L9.00781 11.6875L7.79688 12.0195C7.64062 12.0781 7.46484 12.0195 7.34766 11.9023C7.23047 11.7852 7.17188 11.6094 7.23047 11.4531L7.5625 10.2422L6.35156 9.92969C6.17578 9.89062 6.05859 9.75391 6 9.59766C5.96094 9.42188 6.01953 9.24609 6.13672 9.12891L7.03516 8.25L6.13672 7.37109C6.01953 7.25391 5.96094 7.09766 6 6.92188C6.05859 6.76562 6.17578 6.62891 6.35156 6.58984L7.5625 6.27734L7.23047 5.06641C7.17188 4.91016 7.23047 4.73438 7.34766 4.61719C7.46484 4.5 7.64062 4.44141 7.79688 4.5L9.00781 4.83203L9.32031 3.62109C9.35938 3.44531 9.49609 3.30859 9.65234 3.26953C9.82812 3.23047 10.0039 3.26953 10.1211 3.40625Z" fill="white"/>
</svg>
