<svg width="49" height="18" viewBox="0 0 49 18" fill="none" xmlns="http://www.w3.org/2000/svg">
<rect width="49" height="18" rx="9" fill="#727373"/>
<path d="M20.74 12.08C19.9933 12.08 19.4033 11.9133 18.97 11.58C18.5433 11.24 18.33 10.78 18.33 10.2C18.33 10.14 18.3367 10.0433 18.35 9.91L18.38 9.72C18.3867 9.68667 18.4 9.66 18.42 9.64C18.4467 9.61333 18.4767 9.6 18.51 9.6H19.86C19.8933 9.6 19.92 9.61333 19.94 9.64C19.96 9.66 19.9667 9.68667 19.96 9.72L19.94 9.84C19.9133 10.06 19.9967 10.2533 20.19 10.42C20.39 10.58 20.67 10.66 21.03 10.66C21.3367 10.66 21.5633 10.59 21.71 10.45C21.8633 10.3033 21.94 10.1433 21.94 9.97C21.94 9.81 21.87 9.68667 21.73 9.6C21.59 9.50667 21.3367 9.39333 20.97 9.26L20.74 9.18C20.3667 9.04667 20.0433 8.90667 19.77 8.76C19.4967 8.61333 19.26 8.41333 19.06 8.16C18.8667 7.90667 18.77 7.59667 18.77 7.23C18.77 7.17667 18.7767 7.09 18.79 6.97C18.8433 6.55667 18.9933 6.19667 19.24 5.89C19.4933 5.57667 19.8167 5.33667 20.21 5.17C20.6033 5.00333 21.0367 4.92 21.51 4.92C21.97 4.92 22.3767 5 22.73 5.16C23.09 5.32 23.37 5.55 23.57 5.85C23.77 6.14333 23.87 6.48333 23.87 6.87C23.87 6.93 23.8633 7.02667 23.85 7.16L23.83 7.3C23.83 7.33333 23.8167 7.36333 23.79 7.39C23.7633 7.41 23.7333 7.42 23.7 7.42H22.36C22.3267 7.42 22.2967 7.41 22.27 7.39C22.25 7.36333 22.2433 7.33333 22.25 7.3L22.26 7.23C22.2867 6.99667 22.21 6.79 22.03 6.61C21.8567 6.43 21.6033 6.34 21.27 6.34C20.9967 6.34 20.78 6.40333 20.62 6.53C20.46 6.65 20.38 6.82 20.38 7.04C20.38 7.16 20.4233 7.26333 20.51 7.35C20.5967 7.43667 20.7267 7.52 20.9 7.6C21.0733 7.67333 21.34 7.77667 21.7 7.91C22.1067 8.05667 22.42 8.18333 22.64 8.29C22.8667 8.39667 23.0767 8.57 23.27 8.81C23.47 9.04333 23.57 9.34667 23.57 9.72C23.57 9.77333 23.5633 9.86 23.55 9.98C23.47 10.6267 23.1733 11.14 22.66 11.52C22.1533 11.8933 21.5133 12.08 20.74 12.08ZM26.6105 12.11C25.8905 12.11 25.3205 11.91 24.9005 11.51C24.4805 11.11 24.2705 10.57 24.2705 9.89C24.2705 9.72333 24.2772 9.59333 24.2905 9.5L24.5405 7.5C24.6005 6.99333 24.7639 6.54667 25.0305 6.16C25.3039 5.76667 25.6505 5.46333 26.0705 5.25C26.4972 5.03 26.9705 4.92 27.4905 4.92C27.9705 4.92 28.3872 5.01 28.7405 5.19C29.0939 5.37 29.3639 5.62667 29.5505 5.96C29.7439 6.28667 29.8405 6.67 29.8405 7.11C29.8405 7.28333 29.8339 7.41333 29.8205 7.5L29.5805 9.5C29.5205 10.02 29.3539 10.4767 29.0805 10.87C28.8139 11.2633 28.4672 11.57 28.0405 11.79C27.6139 12.0033 27.1372 12.11 26.6105 12.11ZM26.7805 10.69C27.0939 10.69 27.3572 10.5867 27.5705 10.38C27.7905 10.1667 27.9205 9.89 27.9605 9.55L28.2205 7.48C28.2272 7.44 28.2305 7.38 28.2305 7.3C28.2305 7.00667 28.1472 6.77333 27.9805 6.6C27.8205 6.42667 27.6005 6.34 27.3205 6.34C27.0139 6.34 26.7505 6.44667 26.5305 6.66C26.3172 6.86667 26.1905 7.14 26.1505 7.48L25.9005 9.55C25.8939 9.59667 25.8905 9.66333 25.8905 9.75C25.8905 10.0433 25.9705 10.2733 26.1305 10.44C26.2905 10.6067 26.5072 10.69 26.7805 10.69ZM30.2262 12C30.1928 12 30.1662 11.99 30.1462 11.97C30.1262 11.9433 30.1195 11.9133 30.1262 11.88L30.9562 5.12C30.9562 5.08667 30.9695 5.06 30.9962 5.04C31.0228 5.01333 31.0528 5 31.0862 5H32.4562C32.5295 5 32.5662 5.04 32.5662 5.12L31.8962 10.53C31.8962 10.5633 31.9095 10.58 31.9362 10.58H35.0362C35.0695 10.58 35.0962 10.5933 35.1162 10.62C35.1362 10.64 35.1428 10.6667 35.1362 10.7L34.9962 11.88C34.9895 11.9133 34.9728 11.9433 34.9462 11.97C34.9195 11.99 34.8895 12 34.8562 12H30.2262ZM35.7828 12C35.7495 12 35.7228 11.99 35.7028 11.97C35.6828 11.9433 35.6761 11.9133 35.6828 11.88L36.5128 5.12C36.5128 5.08667 36.5261 5.06 36.5528 5.04C36.5795 5.01333 36.6095 5 36.6428 5H39.1128C39.8195 5 40.3795 5.17333 40.7928 5.52C41.2128 5.86 41.4228 6.32 41.4228 6.9C41.4228 6.96 41.4161 7.05667 41.4028 7.19L41.0828 9.81C41.0295 10.2433 40.8761 10.6267 40.6228 10.96C40.3695 11.2933 40.0361 11.55 39.6228 11.73C39.2161 11.91 38.7595 12 38.2528 12H35.7828ZM37.4528 10.53C37.4528 10.5633 37.4661 10.58 37.4928 10.58H38.4928C38.7528 10.58 38.9761 10.4867 39.1628 10.3C39.3495 10.1067 39.4661 9.85 39.5128 9.53L39.7628 7.47C39.7695 7.42333 39.7728 7.36 39.7728 7.28C39.7728 7.01333 39.7028 6.80333 39.5628 6.65C39.4228 6.49667 39.2328 6.42 38.9928 6.42H38.0128C37.9728 6.42 37.9528 6.43667 37.9528 6.47L37.4528 10.53Z" fill="white"/>
<path d="M15.5 7.48828C15.5 7.60547 15.4414 7.72266 15.3242 7.78125L12.8828 10.2031C12.7852 10.3008 12.668 10.3594 12.5508 10.3594C12.4336 10.3594 12.3164 10.3008 12.2188 10.2031L11.7891 9.77344C11.6914 9.69531 11.6523 9.55859 11.6523 9.46094C11.6523 9.34375 11.6914 9.22656 11.7891 9.14844L11.8867 9.03125L9.67969 6.82422L9.58203 6.94141C9.50391 7.01953 9.38672 7.07812 9.25 7.07812C9.15234 7.07812 9.03516 7.01953 8.9375 6.94141L8.50781 6.49219C8.41016 6.39453 8.37109 6.27734 8.37109 6.16016C8.37109 6.04297 8.41016 5.92578 8.50781 5.82812L10.9297 3.40625C11.0273 3.30859 11.1445 3.25 11.2617 3.25C11.3789 3.25 11.4961 3.30859 11.5938 3.42578L12.043 3.875C12.1211 3.95312 12.1797 4.08984 12.1797 4.1875C12.1797 4.28516 12.1211 4.40234 12.043 4.5L11.9258 4.61719L14.1719 6.82422L14.2891 6.70703C14.3477 6.62891 14.4844 6.57031 14.6016 6.57031C14.6992 6.57031 14.8164 6.62891 14.9141 6.70703L15.3438 7.15625C15.4414 7.25391 15.5 7.37109 15.5 7.48828ZM9.93359 7.91797L10.832 8.81641L9.67969 9.94922C9.79688 10.0664 9.85547 10.2422 9.85547 10.3984C9.85547 10.5547 9.79688 10.7109 9.67969 10.8281L7.43359 13.0742C7.31641 13.1914 7.16016 13.25 7.00391 13.25C6.84766 13.25 6.67188 13.1914 6.55469 13.0742L5.67578 12.1953C5.55859 12.0781 5.5 11.9023 5.5 11.7461C5.5 11.5898 5.55859 11.4336 5.67578 11.3164L7.92188 9.07031C8.03906 8.95312 8.19531 8.875 8.35156 8.875C8.50781 8.875 8.68359 8.95312 8.80078 9.07031L9.93359 7.91797Z" fill="white"/>
</svg>
