<svg width="64" height="18" viewBox="0 0 64 18" fill="none" xmlns="http://www.w3.org/2000/svg">
<rect width="64" height="18" rx="9" fill="#DE1616"/>
<path d="M21.03 5C21.6367 5 22.1167 5.17 22.47 5.51C22.83 5.85 23.01 6.31 23.01 6.89C23.01 6.95667 23.0033 7.07 22.99 7.23C22.9367 7.66333 22.7933 8.04667 22.56 8.38C22.3267 8.71333 22.0233 8.97 21.65 9.15C21.2833 9.33 20.87 9.42 20.41 9.42H19.23C19.2033 9.42 19.1833 9.43667 19.17 9.47L18.88 11.88C18.8733 11.9133 18.8567 11.9433 18.83 11.97C18.81 11.99 18.7833 12 18.75 12H17.37C17.3367 12 17.31 11.99 17.29 11.97C17.27 11.9433 17.2633 11.9133 17.27 11.88L18.1 5.12C18.1067 5.08667 18.12 5.06 18.14 5.04C18.1667 5.01333 18.1967 5 18.23 5H21.03ZM20.39 8.1C20.6833 8.1 20.9233 8.01 21.11 7.83C21.2967 7.65 21.39 7.41667 21.39 7.13C21.39 6.91667 21.3167 6.74667 21.17 6.62C21.03 6.48667 20.84 6.42 20.6 6.42H19.6C19.5733 6.42 19.5533 6.43667 19.54 6.47L19.35 8.05C19.3367 8.08333 19.35 8.1 19.39 8.1H20.39ZM28.6008 6.3C28.5941 6.33333 28.5774 6.36333 28.5508 6.39C28.5308 6.41 28.5041 6.42 28.4708 6.42H25.4308C25.3908 6.42 25.3708 6.43667 25.3708 6.47L25.2208 7.7C25.2208 7.73333 25.2341 7.75 25.2608 7.75H27.2108C27.2441 7.75 27.2708 7.76333 27.2908 7.79C27.3108 7.81 27.3174 7.83667 27.3108 7.87L27.1708 9.04C27.1641 9.07333 27.1474 9.10333 27.1208 9.13C27.1008 9.15 27.0741 9.16 27.0408 9.16H25.0908C25.0641 9.16 25.0441 9.17667 25.0308 9.21L24.8708 10.53C24.8708 10.5633 24.8841 10.58 24.9108 10.58H27.9608C27.9941 10.58 28.0208 10.5933 28.0408 10.62C28.0608 10.64 28.0674 10.6667 28.0608 10.7L27.9208 11.88C27.9141 11.9133 27.8974 11.9433 27.8708 11.97C27.8508 11.99 27.8241 12 27.7908 12H23.2008C23.1674 12 23.1408 11.99 23.1208 11.97C23.1008 11.9433 23.0941 11.9133 23.1008 11.88L23.9308 5.12C23.9308 5.08667 23.9441 5.06 23.9708 5.04C23.9974 5.01333 24.0274 5 24.0608 5H28.6508C28.6841 5 28.7108 5.01333 28.7308 5.04C28.7508 5.06 28.7574 5.08667 28.7508 5.12L28.6008 6.3ZM33.3667 5.12C33.3734 5.08667 33.3867 5.06 33.4067 5.04C33.4334 5.01333 33.4634 5 33.4967 5H34.8767C34.9101 5 34.9367 5.01333 34.9567 5.04C34.9767 5.06 34.9834 5.08667 34.9767 5.12L34.1467 11.88C34.1401 11.9133 34.1234 11.9433 34.0967 11.97C34.0767 11.99 34.0501 12 34.0167 12H32.6967C32.6301 12 32.5867 11.9733 32.5667 11.92L30.8067 8.1C30.7934 8.08 30.7801 8.07333 30.7667 8.08C30.7534 8.08 30.7467 8.09333 30.7467 8.12L30.2967 11.88C30.2901 11.9133 30.2734 11.9433 30.2467 11.97C30.2267 11.99 30.2001 12 30.1667 12H28.7867C28.7534 12 28.7267 11.99 28.7067 11.97C28.6867 11.9433 28.6801 11.9133 28.6867 11.88L29.5167 5.12C29.5167 5.08667 29.5301 5.06 29.5567 5.04C29.5834 5.01333 29.6134 5 29.6467 5H30.9767C31.0367 5 31.0767 5.02667 31.0967 5.08L32.8567 8.89C32.8634 8.91 32.8734 8.92 32.8867 8.92C32.9001 8.91333 32.9101 8.89667 32.9167 8.87L33.3667 5.12ZM35.1734 12C35.1401 12 35.1134 11.99 35.0934 11.97C35.0734 11.9433 35.0668 11.9133 35.0734 11.88L35.9034 5.12C35.9034 5.08667 35.9168 5.06 35.9434 5.04C35.9701 5.01333 36.0001 5 36.0334 5H38.5034C39.2101 5 39.7701 5.17333 40.1834 5.52C40.6034 5.86 40.8134 6.32 40.8134 6.9C40.8134 6.96 40.8068 7.05667 40.7934 7.19L40.4734 9.81C40.4201 10.2433 40.2668 10.6267 40.0134 10.96C39.7601 11.2933 39.4268 11.55 39.0134 11.73C38.6068 11.91 38.1501 12 37.6434 12H35.1734ZM36.8434 10.53C36.8434 10.5633 36.8568 10.58 36.8834 10.58H37.8834C38.1434 10.58 38.3668 10.4867 38.5534 10.3C38.7401 10.1067 38.8568 9.85 38.9034 9.53L39.1534 7.47C39.1601 7.42333 39.1634 7.36 39.1634 7.28C39.1634 7.01333 39.0934 6.80333 38.9534 6.65C38.8134 6.49667 38.6234 6.42 38.3834 6.42H37.4034C37.3634 6.42 37.3434 6.43667 37.3434 6.47L36.8434 10.53ZM41.1598 12C41.1264 12 41.0998 11.99 41.0798 11.97C41.0598 11.9433 41.0531 11.9133 41.0598 11.88L41.8898 5.12C41.8898 5.08667 41.9031 5.06 41.9298 5.04C41.9564 5.01333 41.9864 5 42.0198 5H43.3898C43.4631 5 43.4998 5.04 43.4998 5.12L42.6698 11.88C42.6631 11.9133 42.6464 11.9433 42.6198 11.97C42.5998 11.99 42.5731 12 42.5398 12H41.1598ZM48.3081 5.12C48.3148 5.08667 48.3281 5.06 48.3481 5.04C48.3748 5.01333 48.4048 5 48.4381 5H49.8181C49.8515 5 49.8781 5.01333 49.8981 5.04C49.9181 5.06 49.9248 5.08667 49.9181 5.12L49.0881 11.88C49.0815 11.9133 49.0648 11.9433 49.0381 11.97C49.0181 11.99 48.9915 12 48.9581 12H47.6381C47.5715 12 47.5281 11.9733 47.5081 11.92L45.7481 8.1C45.7348 8.08 45.7215 8.07333 45.7081 8.08C45.6948 8.08 45.6881 8.09333 45.6881 8.12L45.2381 11.88C45.2315 11.9133 45.2148 11.9433 45.1881 11.97C45.1681 11.99 45.1415 12 45.1081 12H43.7281C43.6948 12 43.6681 11.99 43.6481 11.97C43.6281 11.9433 43.6215 11.9133 43.6281 11.88L44.4581 5.12C44.4581 5.08667 44.4715 5.06 44.4981 5.04C44.5248 5.01333 44.5548 5 44.5881 5H45.9181C45.9781 5 46.0181 5.02667 46.0381 5.08L47.7981 8.89C47.8048 8.91 47.8148 8.92 47.8281 8.92C47.8415 8.91333 47.8515 8.89667 47.8581 8.87L48.3081 5.12ZM52.5041 12.08C51.7975 12.08 51.2375 11.8833 50.8241 11.49C50.4108 11.0967 50.2041 10.57 50.2041 9.91C50.2041 9.73667 50.2108 9.60667 50.2241 9.52L50.4741 7.47C50.5341 6.96333 50.6941 6.52 50.9541 6.14C51.2208 5.75333 51.5641 5.45333 51.9841 5.24C52.4041 5.02667 52.8708 4.92 53.3841 4.92C53.8575 4.92 54.2708 5.01 54.6241 5.19C54.9775 5.36333 55.2475 5.60333 55.4341 5.91C55.6275 6.21667 55.7241 6.56 55.7241 6.94C55.7241 7 55.7175 7.09667 55.7041 7.23L55.6941 7.28C55.6875 7.31333 55.6708 7.34333 55.6441 7.37C55.6241 7.39 55.5975 7.4 55.5641 7.4H54.1841C54.1508 7.4 54.1241 7.39 54.1041 7.37C54.0841 7.34333 54.0775 7.31333 54.0841 7.28C54.0908 7.25333 54.0941 7.21333 54.0941 7.16C54.0941 6.92667 54.0175 6.73333 53.8641 6.58C53.7108 6.42 53.4941 6.34 53.2141 6.34C52.9208 6.34 52.6708 6.44 52.4641 6.64C52.2575 6.84 52.1341 7.1 52.0941 7.42L51.8241 9.57C51.8175 9.60333 51.8141 9.65667 51.8141 9.73C51.8141 10.0033 51.9008 10.2267 52.0741 10.4C52.2541 10.5667 52.4808 10.65 52.7541 10.65C53.0408 10.65 53.2808 10.5733 53.4741 10.42C53.6675 10.26 53.7808 10.04 53.8141 9.76L53.8441 9.48C53.8575 9.44667 53.8441 9.43 53.8041 9.43H52.8341C52.8008 9.43 52.7741 9.42 52.7541 9.4C52.7341 9.37333 52.7275 9.34333 52.7341 9.31L52.8641 8.21C52.8708 8.17667 52.8841 8.15 52.9041 8.13C52.9308 8.10333 52.9608 8.09 52.9941 8.09H55.4841C55.5175 8.09 55.5441 8.10333 55.5641 8.13C55.5841 8.15 55.5908 8.17667 55.5841 8.21L55.4141 9.57C55.3541 10.07 55.1941 10.51 54.9341 10.89C54.6741 11.27 54.3341 11.5633 53.9141 11.77C53.4941 11.9767 53.0241 12.08 52.5041 12.08Z" fill="white"/>
<path d="M7.25 4.875C7.25 4.54297 7.52344 4.25 7.875 4.25H8.5H13.5H14.125C14.457 4.25 14.75 4.54297 14.75 4.875C14.75 5.22656 14.457 5.5 14.125 5.5V5.71484C14.125 6.55469 13.793 7.35547 13.207 7.94141L11.8789 9.25L13.207 10.5781C13.793 11.1641 14.125 11.9648 14.125 12.7852V13C14.457 13 14.75 13.293 14.75 13.625C14.75 13.9766 14.457 14.25 14.125 14.25H13.5H8.5H7.875C7.52344 14.25 7.25 13.9766 7.25 13.625C7.25 13.293 7.52344 13 7.875 13V12.7852C7.875 11.9648 8.1875 11.1641 8.77344 10.5781L10.1016 9.25L8.77344 7.94141C8.1875 7.35547 7.875 6.55469 7.875 5.71484V5.5C7.52344 5.5 7.25 5.22656 7.25 4.875ZM9.125 5.5V5.71484C9.125 6.22266 9.32031 6.69141 9.67188 7.04297L11 8.37109L12.3086 7.04297C12.6602 6.69141 12.875 6.22266 12.875 5.71484V5.5H9.125ZM9.125 13H12.875V12.7852C12.875 12.2969 12.6602 11.8281 12.3086 11.4766L11 10.1484L9.67188 11.4766C9.32031 11.8281 9.125 12.2969 9.125 12.8047V13.0195V13Z" fill="white"/>
</svg>
