<svg width="70" height="18" viewBox="0 0 70 18" fill="none" xmlns="http://www.w3.org/2000/svg">
<rect width="70" height="18" rx="9" fill="#DE7616"/>
<path d="M21.65 5.12C21.6567 5.08667 21.67 5.06 21.69 5.04C21.7167 5.01333 21.7467 5 21.78 5H23.16C23.1933 5 23.22 5.01333 23.24 5.04C23.26 5.06 23.2667 5.08667 23.26 5.12L22.43 11.88C22.4233 11.9133 22.4067 11.9433 22.38 11.97C22.36 11.99 22.3333 12 22.3 12H20.92C20.8867 12 20.86 11.99 20.84 11.97C20.82 11.9433 20.8133 11.9133 20.82 11.88L21.14 9.22C21.1533 9.18667 21.14 9.17 21.1 9.17H19.29C19.2633 9.17 19.2433 9.18667 19.23 9.22L18.91 11.88C18.9033 11.9133 18.8867 11.9433 18.86 11.97C18.84 11.99 18.8133 12 18.78 12H17.4C17.3667 12 17.34 11.99 17.32 11.97C17.3 11.9433 17.2933 11.9133 17.3 11.88L18.13 5.12C18.13 5.08667 18.1433 5.06 18.17 5.04C18.1967 5.01333 18.2267 5 18.26 5H19.63C19.7033 5 19.74 5.04 19.74 5.12L19.42 7.7C19.42 7.73333 19.4333 7.75 19.46 7.75H21.28C21.2933 7.75 21.3033 7.74667 21.31 7.74C21.3233 7.72667 21.33 7.71333 21.33 7.7L21.65 5.12ZM25.8059 12.11C25.0859 12.11 24.5159 11.91 24.0959 11.51C23.6759 11.11 23.4659 10.57 23.4659 9.89C23.4659 9.72333 23.4725 9.59333 23.4859 9.5L23.7359 7.5C23.7959 6.99333 23.9592 6.54667 24.2259 6.16C24.4992 5.76667 24.8459 5.46333 25.2659 5.25C25.6925 5.03 26.1659 4.92 26.6859 4.92C27.1659 4.92 27.5825 5.01 27.9359 5.19C28.2892 5.37 28.5592 5.62667 28.7459 5.96C28.9392 6.28667 29.0359 6.67 29.0359 7.11C29.0359 7.28333 29.0292 7.41333 29.0159 7.5L28.7759 9.5C28.7159 10.02 28.5492 10.4767 28.2759 10.87C28.0092 11.2633 27.6625 11.57 27.2359 11.79C26.8092 12.0033 26.3325 12.11 25.8059 12.11ZM25.9759 10.69C26.2892 10.69 26.5525 10.5867 26.7659 10.38C26.9859 10.1667 27.1159 9.89 27.1559 9.55L27.4159 7.48C27.4225 7.44 27.4259 7.38 27.4259 7.3C27.4259 7.00667 27.3425 6.77333 27.1759 6.6C27.0159 6.42667 26.7959 6.34 26.5159 6.34C26.2092 6.34 25.9459 6.44667 25.7259 6.66C25.5125 6.86667 25.3859 7.14 25.3459 7.48L25.0959 9.55C25.0892 9.59667 25.0859 9.66333 25.0859 9.75C25.0859 10.0433 25.1659 10.2733 25.3259 10.44C25.4859 10.6067 25.7025 10.69 25.9759 10.69ZM34.9934 5C35.0267 5 35.0534 5.01333 35.0734 5.04C35.0934 5.06 35.1 5.08667 35.0934 5.12L34.9434 6.31C34.9434 6.34333 34.93 6.37333 34.9034 6.4C34.8767 6.42 34.8467 6.43 34.8134 6.43H33.1234C33.0834 6.43 33.0634 6.44667 33.0634 6.48L32.4034 11.88C32.3967 11.9133 32.38 11.9433 32.3534 11.97C32.3334 11.99 32.3067 12 32.2734 12H30.8934C30.86 12 30.8334 11.99 30.8134 11.97C30.7934 11.9433 30.7867 11.9133 30.7934 11.88L31.4534 6.48C31.4534 6.44667 31.44 6.43 31.4134 6.43H29.7734C29.74 6.43 29.7134 6.42 29.6934 6.4C29.6734 6.37333 29.6667 6.34333 29.6734 6.31L29.8134 5.12C29.82 5.08667 29.8334 5.06 29.8534 5.04C29.88 5.01333 29.91 5 29.9434 5H34.9934ZM41.2594 5.12C41.266 5.08667 41.2794 5.06 41.2994 5.04C41.326 5.01333 41.356 5 41.3894 5H42.7694C42.8027 5 42.8294 5.01333 42.8494 5.04C42.8694 5.06 42.876 5.08667 42.8694 5.12L42.0394 11.88C42.0327 11.9133 42.016 11.9433 41.9894 11.97C41.9694 11.99 41.9427 12 41.9094 12H40.5294C40.496 12 40.4694 11.99 40.4494 11.97C40.4294 11.9433 40.4227 11.9133 40.4294 11.88L40.7494 9.22C40.7627 9.18667 40.7494 9.17 40.7094 9.17H38.8994C38.8727 9.17 38.8527 9.18667 38.8394 9.22L38.5194 11.88C38.5127 11.9133 38.496 11.9433 38.4694 11.97C38.4494 11.99 38.4227 12 38.3894 12H37.0094C36.976 12 36.9494 11.99 36.9294 11.97C36.9094 11.9433 36.9027 11.9133 36.9094 11.88L37.7394 5.12C37.7394 5.08667 37.7527 5.06 37.7794 5.04C37.806 5.01333 37.836 5 37.8694 5H39.2394C39.3127 5 39.3494 5.04 39.3494 5.12L39.0294 7.7C39.0294 7.73333 39.0427 7.75 39.0694 7.75H40.8894C40.9027 7.75 40.9127 7.74667 40.9194 7.74C40.9327 7.72667 40.9394 7.71333 40.9394 7.7L41.2594 5.12ZM45.4152 12.11C44.6952 12.11 44.1252 11.91 43.7052 11.51C43.2852 11.11 43.0752 10.57 43.0752 9.89C43.0752 9.72333 43.0819 9.59333 43.0952 9.5L43.3452 7.5C43.4052 6.99333 43.5686 6.54667 43.8352 6.16C44.1086 5.76667 44.4552 5.46333 44.8752 5.25C45.3019 5.03 45.7752 4.92 46.2952 4.92C46.7752 4.92 47.1919 5.01 47.5452 5.19C47.8986 5.37 48.1686 5.62667 48.3552 5.96C48.5486 6.28667 48.6452 6.67 48.6452 7.11C48.6452 7.28333 48.6386 7.41333 48.6252 7.5L48.3852 9.5C48.3252 10.02 48.1586 10.4767 47.8852 10.87C47.6186 11.2633 47.2719 11.57 46.8452 11.79C46.4186 12.0033 45.9419 12.11 45.4152 12.11ZM45.5852 10.69C45.8986 10.69 46.1619 10.5867 46.3752 10.38C46.5952 10.1667 46.7252 9.89 46.7652 9.55L47.0252 7.48C47.0319 7.44 47.0352 7.38 47.0352 7.3C47.0352 7.00667 46.9519 6.77333 46.7852 6.6C46.6252 6.42667 46.4052 6.34 46.1252 6.34C45.8186 6.34 45.5552 6.44667 45.3352 6.66C45.1219 6.86667 44.9952 7.14 44.9552 7.48L44.7052 9.55C44.6986 9.59667 44.6952 9.66333 44.6952 9.75C44.6952 10.0433 44.7752 10.2733 44.9352 10.44C45.0952 10.6067 45.3119 10.69 45.5852 10.69ZM54.1209 5.08C54.1475 5.02667 54.1942 5 54.2609 5H55.6309C55.6642 5 55.6909 5.01333 55.7109 5.04C55.7309 5.06 55.7375 5.08667 55.7309 5.12L54.9009 11.88C54.8942 11.9133 54.8775 11.9433 54.8509 11.97C54.8309 11.99 54.8042 12 54.7709 12H53.3909C53.3575 12 53.3309 11.99 53.3109 11.97C53.2909 11.9433 53.2842 11.9133 53.2909 11.88L53.7809 7.86C53.7875 7.83333 53.7842 7.82 53.7709 7.82C53.7575 7.82 53.7442 7.83 53.7309 7.85L52.7209 9.23C52.6942 9.28333 52.6475 9.31 52.5809 9.31H51.8909C51.8309 9.31 51.7875 9.28333 51.7609 9.23L51.0909 7.84C51.0842 7.82 51.0742 7.81 51.0609 7.81C51.0475 7.81 51.0375 7.82333 51.0309 7.85L50.5409 11.88C50.5342 11.9133 50.5175 11.9433 50.4909 11.97C50.4709 11.99 50.4442 12 50.4109 12H49.0309C48.9975 12 48.9709 11.99 48.9509 11.97C48.9309 11.9433 48.9242 11.9133 48.9309 11.88L49.7609 5.12C49.7609 5.08667 49.7742 5.06 49.8009 5.04C49.8275 5.01333 49.8575 5 49.8909 5H51.2509C51.3175 5 51.3609 5.02667 51.3809 5.08L52.4609 7.26C52.4809 7.3 52.5009 7.3 52.5209 7.26L54.1209 5.08ZM61.3645 6.3C61.3578 6.33333 61.3411 6.36333 61.3145 6.39C61.2945 6.41 61.2678 6.42 61.2345 6.42H58.1945C58.1545 6.42 58.1345 6.43667 58.1345 6.47L57.9845 7.7C57.9845 7.73333 57.9978 7.75 58.0245 7.75H59.9745C60.0078 7.75 60.0345 7.76333 60.0545 7.79C60.0745 7.81 60.0811 7.83667 60.0745 7.87L59.9345 9.04C59.9278 9.07333 59.9111 9.10333 59.8845 9.13C59.8645 9.15 59.8378 9.16 59.8045 9.16H57.8545C57.8278 9.16 57.8078 9.17667 57.7945 9.21L57.6345 10.53C57.6345 10.5633 57.6478 10.58 57.6745 10.58H60.7245C60.7578 10.58 60.7845 10.5933 60.8045 10.62C60.8245 10.64 60.8311 10.6667 60.8245 10.7L60.6845 11.88C60.6778 11.9133 60.6611 11.9433 60.6345 11.97C60.6145 11.99 60.5878 12 60.5545 12H55.9645C55.9311 12 55.9045 11.99 55.8845 11.97C55.8645 11.9433 55.8578 11.9133 55.8645 11.88L56.6945 5.12C56.6945 5.08667 56.7078 5.06 56.7345 5.04C56.7611 5.01333 56.7911 5 56.8245 5H61.4145C61.4478 5 61.4745 5.01333 61.4945 5.04C61.5145 5.06 61.5211 5.08667 61.5145 5.12L61.3645 6.3Z" fill="white"/>
<path d="M10.2383 3.83594L10.5508 3.42578C10.6289 3.32812 10.7656 3.25 10.8828 3.25C11.1172 3.25 11.3125 3.44531 11.3125 3.67969V4.10938C11.3125 4.36328 11.4102 4.61719 11.5859 4.79297L13.2461 6.35547C14.2031 7.27344 14.75 8.54297 14.75 9.85156C14.75 11.7266 13.2266 13.25 11.332 13.25H11C8.92969 13.25 7.25 11.5703 7.25 9.5V9.44141C7.25 8.48438 7.62109 7.56641 8.28516 6.90234L8.36328 6.82422C8.44141 6.74609 8.55859 6.6875 8.67578 6.6875C8.91016 6.6875 9.125 6.90234 9.125 7.13672V8.875C9.125 9.57812 9.67188 10.125 10.375 10.125C11.0586 10.125 11.625 9.57812 11.625 8.875V8.81641C11.625 8.46484 11.4688 8.11328 11.2344 7.87891L10.4727 7.11719C10.0039 6.64844 9.75 6.00391 9.75 5.33984C9.75 4.8125 9.92578 4.26562 10.2383 3.83594Z" fill="white"/>
</svg>
