<svg width="18" height="19" viewBox="0 0 18 19" fill="none" xmlns="http://www.w3.org/2000/svg">
<path d="M17.2031 3.75781L11.4609 9.5L17.2031 15.2969C17.9141 15.9531 17.9141 17.1016 17.2031 17.7578C16.5469 18.4688 15.3984 18.4688 14.7422 17.7578L9 12.0156L3.20312 17.7578C2.54688 18.4688 1.39844 18.4688 0.742188 17.7578C0.03125 17.1016 0.03125 15.9531 0.742188 15.2969L6.48438 9.5L0.742188 3.75781C0.03125 3.10156 0.03125 1.95312 0.742188 1.29688C1.39844 0.585938 2.54688 0.585938 3.20312 1.29688L9 7.03906L14.7422 1.29688C15.3984 0.585938 16.5469 0.585938 17.2031 1.29688C17.9141 1.95312 17.9141 3.10156 17.2031 3.75781Z" fill="#727373"/>
</svg>
